WixMadeforText-ExtraBold.ufo
<glyph name="numbersign" format="2">
	<unicode hex="0023"/>
	<advance width="646"/>
	<outline>
		<contour>
			<point x="451" y="0" type="line"/>
			<point x="594" y="715" type="line"/>
			<point x="447" y="715" type="line"/>
			<point x="304" y="0" type="line"/>
		</contour>
		<contour>
			<point x="554" y="145" type="line"/>
			<point x="581" y="276" type="line"/>
			<point x="32" y="276" type="line"/>
			<point x="4" y="145" type="line"/>
		</contour>
		<contour>
			<point x="199" y="0" type="line"/>
			<point x="342" y="715" type="line"/>
			<point x="195" y="715" type="line"/>
			<point x="52" y="0" type="line"/>
		</contour>
		<contour>
			<point x="614" y="439" type="line"/>
			<point x="642" y="570" type="line"/>
			<point x="92" y="570" type="line"/>
			<point x="65" y="439" type="line"/>
		</contour>
	</outline>
</glyph>
<glyph name="parenright" format="2">
	<unicode hex="0029"/>
	<advance width="371"/>
	<outline>
		<contour>
			<point x="30" y="-129" type="line"/>
			<point x="121" y="11"/>
			<point x="158" y="155"/>
			<point x="158" y="304" type="curve" smooth="yes"/>
			<point x="158" y="453"/>
			<point x="118" y="592"/>
			<point x="30" y="731" type="curve"/>
			<point x="195" y="731" type="line"/>
			<point x="279" y="606"/>
			<point x="323" y="465"/>
			<point x="323" y="304" type="curve" smooth="yes"/>
			<point x="323" y="143"/>
			<point x="279" y="-4"/>
			<point x="195" y="-129" type="curve"/>
		</contour>
	</outline>
</glyph>
<glyph name="asterisk" format="2">
	<unicode hex="002A"/>
	<advance width="434"/>
	<outline>
		<contour>
			<point x="310" y="316" type="curve" smooth="yes"/>
			<point x="340" y="316"/>
			<point x="365" y="341"/>
			<point x="365" y="368" type="curve" smooth="yes"/>
			<point x="365" y="382"/>
			<point x="360" y="397"/>
			<point x="351" y="410" type="curve" smooth="yes"/>
			<point x="337" y="430"/>
			<point x="296" y="467"/>
			<point x="259" y="494" type="curve"/>
			<point x="306" y="494"/>
			<point x="353" y="498"/>
			<point x="376" y="505" type="curve" smooth="yes"/>
			<point x="402" y="512"/>
			<point x="416" y="532"/>
			<point x="416" y="557" type="curve" smooth="yes"/>
			<point x="416" y="591"/>
			<point x="394" y="615"/>
			<point x="365" y="615" type="curve" smooth="yes"/>
			<point x="355" y="615"/>
			<point x="347" y="614"/>
			<point x="337" y="610" type="curve" smooth="yes"/>
			<point x="318" y="602"/>
			<point x="287" y="581"/>
			<point x="243" y="545" type="curve"/>
			<point x="259" y="593"/>
			<point x="271" y="650"/>
			<point x="271" y="674" type="curve" smooth="yes"/>
			<point x="271" y="709"/>
			<point x="250" y="732"/>
			<point x="217" y="732" type="curve" smooth="yes"/>
			<point x="184" y="732"/>
			<point x="163" y="709"/>
			<point x="163" y="674" type="curve" smooth="yes"/>
			<point x="163" y="650"/>
			<point x="175" y="593"/>
			<point x="191" y="545" type="curve"/>
			<point x="147" y="581"/>
			<point x="116" y="602"/>
			<point x="97" y="610" type="curve" smooth="yes"/>
			<point x="87" y="614"/>
			<point x="79" y="615"/>
			<point x="69" y="615" type="curve" smooth="yes"/>
			<point x="40" y="615"/>
			<point x="18" y="591"/>
			<point x="18" y="557" type="curve" smooth="yes"/>
			<point x="18" y="532"/>
			<point x="32" y="512"/>
			<point x="58" y="505" type="curve" smooth="yes"/>
			<point x="81" y="498"/>
			<point x="128" y="494"/>
			<point x="175" y="494" type="curve"/>
			<point x="138" y="467"/>
			<point x="97" y="430"/>
			<point x="83" y="410" type="curve" smooth="yes"/>
			<point x="74" y="397"/>
			<point x="69" y="382"/>
			<point x="69" y="368" type="curve" smooth="yes"/>
			<point x="69" y="341"/>
			<point x="94" y="316"/>
			<point x="124" y="316" type="curve" smooth="yes"/>
			<point x="142" y="316"/>
			<point x="157" y="323"/>
			<point x="169" y="341" type="curve" smooth="yes"/>
			<point x="182" y="361"/>
			<point x="204" y="415"/>
			<point x="217" y="462" type="curve"/>
			<point x="230" y="415"/>
			<point x="252" y="361"/>
			<point x="265" y="341" type="curve" smooth="yes"/>
			<point x="277" y="323"/>
			<point x="292" y="316"/>
		</contour>
	</outline>
</glyph>
<glyph name="hyphen" format="2">
	<unicode hex="002D"/>
	<advance width="323"/>
	<outline>
		<contour>
			<point x="297" y="213" type="line"/>
			<point x="297" y="351" type="line"/>
			<point x="26" y="351" type="line"/>
			<point x="26" y="213" type="line"/>
		</contour>
	</outline>
</glyph>
<glyph name="slash" format="2">
	<unicode hex="002F"/>
	<advance width="527"/>
	<outline>
		<contour>
			<point x="208" y="0" type="line"/>
			<point x="477" y="732" type="line"/>
			<point x="319" y="732" type="line"/>
			<point x="50" y="0" type="line"/>
		</contour>
	</outline>
</glyph>
<glyph name="zero" format="2">
	<unicode hex="0030"/>
	<advance width="632"/>
	<outline>
		<contour>
			<point x="316" y="120" type="curve" smooth="yes"/>
			<point x="243" y="120"/>
			<point x="200" y="198"/>
			<point x="200" y="357" type="curve" smooth="yes"/>
			<point x="200" y="517"/>
			<point x="243" y="595"/>
			<point x="316" y="595" type="curve" smooth="yes"/>
			<point x="389" y="595"/>
			<point x="432" y="517"/>
			<point x="432" y="357" type="curve" smooth="yes"/>
			<point x="432" y="198"/>
			<point x="389" y="120"/>
		</contour>
		<contour>
			<point x="316" y="-16" type="curve" smooth="yes"/>
			<point x="493" y="-16"/>
			<point x="600" y="119"/>
			<point x="600" y="357" type="curve" smooth="yes"/>
			<point x="600" y="597"/>
			<point x="493" y="731"/>
			<point x="316" y="731" type="curve" smooth="yes"/>
			<point x="139" y="731"/>
			<point x="32" y="597"/>
			<point x="32" y="357" type="curve" smooth="yes"/>
			<point x="32" y="119"/>
			<point x="139" y="-16"/>
		</contour>
	</outline>
</glyph>
<glyph name="one" format="2">
	<unicode hex="0031"/>
	<advance width="523"/>
	<outline>
		<contour>
			<point x="279" y="715" type="line"/>
			<point x="80" y="596" type="line"/>
			<point x="80" y="431" type="line"/>
			<point x="247" y="539" type="line"/>
			<point x="247" y="0" type="line"/>
			<point x="413" y="0" type="line"/>
			<point x="413" y="715" type="line"/>
		</contour>
	</outline>
</glyph>
<glyph name="two" format="2">
	<unicode hex="0032"/>
	<advance width="574"/>
	<outline>
		<contour>
			<point x="535" y="0" type="line"/>
			<point x="535" y="134" type="line"/>
			<point x="258" y="134" type="line"/>
			<point x="363" y="225" type="line" smooth="yes"/>
			<point x="490" y="337"/>
			<point x="536" y="406"/>
			<point x="536" y="505" type="curve" smooth="yes"/>
			<point x="536" y="644"/>
			<point x="436" y="731"/>
			<point x="277" y="731" type="curve" smooth="yes"/>
			<point x="182" y="731"/>
			<point x="94" y="684"/>
			<point x="25" y="597" type="curve"/>
			<point x="130" y="490" type="line"/>
			<point x="176" y="556"/>
			<point x="224" y="589"/>
			<point x="278" y="589" type="curve" smooth="yes"/>
			<point x="339" y="589"/>
			<point x="378" y="552"/>
			<point x="378" y="496" type="curve" smooth="yes"/>
			<point x="378" y="455"/>
			<point x="358" y="422"/>
			<point x="302" y="371" type="curve" smooth="yes"/>
			<point x="42" y="136" type="line"/>
			<point x="42" y="0" type="line"/>
		</contour>
	</outline>
	<guideline x="277"/>
	<guideline x="0" y="-102" angle="137.89"/>
	<guideline x="0" y="98" angle="137.89"/>
</glyph>
<glyph name="five" format="2">
	<unicode hex="0035"/>
	<advance width="607"/>
	<outline>
		<contour>
			<point x="24" y="109" type="line"/>
			<point x="80" y="29"/>
			<point x="176" y="-16"/>
			<point x="282" y="-16" type="curve" smooth="yes"/>
			<point x="450" y="-16"/>
			<point x="569" y="96"/>
			<point x="569" y="249" type="curve" smooth="yes"/>
			<point x="569" y="390"/>
			<point x="478" y="494"/>
			<point x="346" y="494" type="curve" smooth="yes"/>
			<point x="234" y="494"/>
			<point x="151" y="418"/>
			<point x="140" y="304" type="curve"/>
			<point x="191" y="301" type="line"/>
			<point x="213" y="339"/>
			<point x="253" y="360"/>
			<point x="296" y="360" type="curve" smooth="yes"/>
			<point x="363" y="360"/>
			<point x="405" y="311"/>
			<point x="405" y="242" type="curve" smooth="yes"/>
			<point x="405" y="172"/>
			<point x="356" y="121"/>
			<point x="282" y="121" type="curve" smooth="yes"/>
			<point x="220" y="121"/>
			<point x="164" y="156"/>
			<point x="129" y="216" type="curve"/>
		</contour>
		<contour>
			<point x="536" y="581" type="line"/>
			<point x="536" y="715" type="line"/>
			<point x="101" y="715" type="line"/>
			<point x="52" y="301" type="line"/>
			<point x="191" y="301" type="line"/>
			<point x="239" y="676" type="line"/>
			<point x="155" y="581" type="line"/>
		</contour>
	</outline>
</glyph>
<glyph name="six" format="2">
	<unicode hex="0036"/>
	<advance width="624"/>
	<outline>
		<contour>
			<point x="313" y="-16" type="curve" smooth="yes"/>
			<point x="476" y="-16"/>
			<point x="591" y="91"/>
			<point x="591" y="244" type="curve" smooth="yes"/>
			<point x="591" y="387"/>
			<point x="498" y="484"/>
			<point x="362" y="484" type="curve" smooth="yes"/>
			<point x="304" y="484"/>
			<point x="261" y="465"/>
			<point x="233" y="429" type="curve"/>
			<point x="242" y="425" type="line"/>
			<point x="288" y="504"/>
			<point x="365" y="586"/>
			<point x="514" y="715" type="curve"/>
			<point x="300" y="715" type="line"/>
			<point x="114" y="559"/>
			<point x="40" y="431"/>
			<point x="40" y="263" type="curve" smooth="yes"/>
			<point x="40" y="99"/>
			<point x="153" y="-16"/>
		</contour>
		<contour>
			<point x="314" y="120" type="curve" smooth="yes"/>
			<point x="249" y="120"/>
			<point x="202" y="171"/>
			<point x="202" y="240" type="curve" smooth="yes"/>
			<point x="202" y="310"/>
			<point x="246" y="355"/>
			<point x="314" y="355" type="curve" smooth="yes"/>
			<point x="381" y="355"/>
			<point x="427" y="308"/>
			<point x="427" y="240" type="curve" smooth="yes"/>
			<point x="427" y="169"/>
			<point x="381" y="120"/>
		</contour>
	</outline>
	<guideline y="308"/>
</glyph>
<glyph name="nine" format="2">
	<unicode hex="0039"/>
	<advance width="624"/>
	<outline>
		<contour>
			<point x="315" y="731" type="curve" smooth="yes"/>
			<point x="152" y="731"/>
			<point x="37" y="624"/>
			<point x="37" y="471" type="curve" smooth="yes"/>
			<point x="37" y="328"/>
			<point x="130" y="231"/>
			<point x="266" y="231" type="curve" smooth="yes"/>
			<point x="324" y="231"/>
			<point x="367" y="250"/>
			<point x="395" y="286" type="curve"/>
			<point x="386" y="290" type="line"/>
			<point x="340" y="211"/>
			<point x="263" y="129"/>
			<point x="114" y="0" type="curve"/>
			<point x="328" y="0" type="line"/>
			<point x="514" y="156"/>
			<point x="588" y="284"/>
			<point x="588" y="452" type="curve" smooth="yes"/>
			<point x="588" y="616"/>
			<point x="475" y="731"/>
		</contour>
		<contour>
			<point x="314" y="595" type="curve" smooth="yes"/>
			<point x="379" y="595"/>
			<point x="426" y="544"/>
			<point x="426" y="475" type="curve" smooth="yes"/>
			<point x="426" y="405"/>
			<point x="382" y="360"/>
			<point x="314" y="360" type="curve" smooth="yes"/>
			<point x="247" y="360"/>
			<point x="201" y="407"/>
			<point x="201" y="475" type="curve" smooth="yes"/>
			<point x="201" y="546"/>
			<point x="247" y="595"/>
		</contour>
	</outline>
</glyph>
<glyph name="less" format="2">
	<unicode hex="003C"/>
	<advance width="632"/>
	<outline>
		<contour>
			<point x="106" y="411" type="line"/>
			<point x="106" y="271" type="line"/>
			<point x="526" y="100" type="line"/>
			<point x="526" y="251" type="line"/>
		</contour>
		<contour>
			<point x="106" y="446" type="line"/>
			<point x="106" y="308" type="line"/>
			<point x="526" y="469" type="line"/>
			<point x="526" y="617" type="line"/>
		</contour>
	</outline>
</glyph>
<glyph name="equal" format="2">
	<unicode hex="003D"/>
	<advance width="632"/>
	<outline>
		<contour>
			<point x="529" y="176" type="line"/>
			<point x="529" y="310" type="line"/>
			<point x="103" y="310" type="line"/>
			<point x="103" y="176" type="line"/>
		</contour>
		<contour>
			<point x="529" y="405" type="line"/>
			<point x="529" y="539" type="line"/>
			<point x="103" y="539" type="line"/>
			<point x="103" y="405" type="line"/>
		</contour>
	</outline>
</glyph>
<glyph name="A" format="2">
	<unicode hex="0041"/>
	<advance width="771"/>
	<outline>
		<contour>
			<point x="595" y="132" type="line"/>
			<point x="595" y="273" type="line"/>
			<point x="174" y="273" type="line"/>
			<point x="174" y="132" type="line"/>
		</contour>
		<contour>
			<point x="743" y="0" type="line"/>
			<point x="478" y="715" type="line"/>
			<point x="292" y="715" type="line"/>
			<point x="28" y="0" type="line"/>
			<point x="201" y="0" type="line"/>
			<point x="403" y="591" type="line"/>
			<point x="361" y="591" type="line"/>
			<point x="563" y="0" type="line"/>
		</contour>
	</outline>
	<anchor name="bottom.UC" x="385" y="-50"/>
	<anchor name="ogonek.UC" x="562" y="-30"/>
	<anchor name="top.UC" x="385" y="750"/>
</glyph>
<glyph name="D" format="2">
	<unicode hex="0044"/>
	<advance width="753"/>
	<outline>
		<contour>
			<point x="79" y="0" type="line"/>
			<point x="334" y="0" type="line" smooth="yes"/>
			<point x="558" y="0"/>
			<point x="705" y="148"/>
			<point x="705" y="358" type="curve" smooth="yes"/>
			<point x="705" y="567"/>
			<point x="558" y="715"/>
			<point x="334" y="715" type="curve" smooth="yes"/>
			<point x="79" y="715" type="line"/>
		</contour>
		<contour>
			<point x="245" y="141" type="line"/>
			<point x="245" y="574" type="line"/>
			<point x="334" y="574" type="line" smooth="yes"/>
			<point x="456" y="574"/>
			<point x="530" y="490"/>
			<point x="530" y="358" type="curve" smooth="yes"/>
			<point x="530" y="225"/>
			<point x="456" y="141"/>
			<point x="334" y="141" type="curve" smooth="yes"/>
		</contour>
	</outline>
	<anchor name="top.UC" x="337" y="750"/>
</glyph>
<glyph name="E" format="2">
	<unicode hex="0045"/>
	<advance width="614"/>
	<outline>
		<contour>
			<point x="571" y="0" type="line"/>
			<point x="571" y="141" type="line"/>
			<point x="245" y="141" type="line"/>
			<point x="245" y="574" type="line"/>
			<point x="571" y="574" type="line"/>
			<point x="571" y="715" type="line"/>
			<point x="79" y="715" type="line"/>
			<point x="79" y="0" type="line"/>
		</contour>
		<contour>
			<point x="553" y="289" type="line"/>
			<point x="553" y="430" type="line"/>
			<point x="235" y="430" type="line"/>
			<point x="235" y="289" type="line"/>
		</contour>
	</outline>
	<anchor name="bottom.UC" x="325" y="-50"/>
	<anchor name="ogonek.UC" x="426" y="-30"/>
	<anchor name="top.UC" x="325" y="750"/>
</glyph>
<glyph name="H" format="2">
	<unicode hex="0048"/>
	<advance width="758"/>
	<outline>
		<contour>
			<point x="513" y="0" type="line"/>
			<point x="679" y="0" type="line"/>
			<point x="679" y="715" type="line"/>
			<point x="513" y="715" type="line"/>
		</contour>
		<contour>
			<point x="245" y="0" type="line"/>
			<point x="245" y="715" type="line"/>
			<point x="79" y="715" type="line"/>
			<point x="79" y="0" type="line"/>
		</contour>
		<contour>
			<point x="235" y="294" type="line"/>
			<point x="522" y="294" type="line"/>
			<point x="522" y="436" type="line"/>
			<point x="235" y="436" type="line"/>
		</contour>
	</outline>
	<anchor name="bottom.UC" x="379" y="-50"/>
	<anchor name="top.UC" x="379" y="750"/>
</glyph>
<glyph name="I" format="2">
	<unicode hex="0049"/>
	<advance width="324"/>
	<outline>
		<contour>
			<point x="245" y="0" type="line"/>
			<point x="245" y="715" type="line"/>
			<point x="79" y="715" type="line"/>
			<point x="79" y="0" type="line"/>
		</contour>
	</outline>
	<anchor name="bottom.UC" x="162" y="-50"/>
	<anchor name="ogonek.UC" x="100" y="-30"/>
	<anchor name="top.UC" x="162" y="750"/>
</glyph>
<glyph name="K" format="2">
	<unicode hex="004B"/>
	<advance width="756"/>
	<outline>
		<contour>
			<point x="245" y="0" type="line"/>
			<point x="245" y="715" type="line"/>
			<point x="79" y="715" type="line"/>
			<point x="79" y="0" type="line"/>
		</contour>
		<contour>
			<point x="736" y="0" type="line"/>
			<point x="416" y="386" type="line"/>
			<point x="416" y="356" type="line"/>
			<point x="697" y="715" type="line"/>
			<point x="497" y="715" type="line"/>
			<point x="236" y="371" type="line"/>
			<point x="221" y="371" type="line"/>
			<point x="521" y="0" type="line"/>
		</contour>
	</outline>
	<anchor name="bottom.UC" x="374" y="-50"/>
	<anchor name="top.UC" x="371" y="750"/>
</glyph>
<glyph name="N" format="2">
	<unicode hex="004E"/>
	<advance width="771"/>
	<outline>
		<contour>
			<point x="242" y="0" type="line"/>
			<point x="242" y="560" type="line"/>
			<point x="170" y="560" type="line"/>
			<point x="520" y="0" type="line"/>
			<point x="692" y="0" type="line"/>
			<point x="692" y="715" type="line"/>
			<point x="529" y="715" type="line"/>
			<point x="529" y="155" type="line"/>
			<point x="602" y="155" type="line"/>
			<point x="251" y="715" type="line"/>
			<point x="79" y="715" type="line"/>
			<point x="79" y="0" type="line"/>
		</contour>
	</outline>
	<anchor name="bottom.UC" x="390" y="-50"/>
	<anchor name="top.UC" x="390" y="750"/>
</glyph>
<glyph name="Q" format="2">
	<unicode hex="0051"/>
	<advance width="827"/>
	<outline>
		<contour>
			<point x="676" y="-51" type="line"/>
			<point x="767" y="43" type="line"/>
			<point x="479" y="349" type="line"/>
			<point x="389" y="255" type="line"/>
		</contour>
		<contour>
			<point x="414" y="-16" type="curve" smooth="yes"/>
			<point x="630" y="-16"/>
			<point x="779" y="146"/>
			<point x="779" y="358" type="curve" smooth="yes"/>
			<point x="779" y="573"/>
			<point x="627" y="731"/>
			<point x="414" y="731" type="curve" smooth="yes"/>
			<point x="200" y="731"/>
			<point x="48" y="573"/>
			<point x="48" y="358" type="curve" smooth="yes"/>
			<point x="48" y="142"/>
			<point x="200" y="-16"/>
		</contour>
		<contour>
			<point x="414" y="133" type="curve" smooth="yes"/>
			<point x="301" y="133"/>
			<point x="222" y="227"/>
			<point x="222" y="358" type="curve" smooth="yes"/>
			<point x="222" y="488"/>
			<point x="301" y="582"/>
			<point x="414" y="582" type="curve" smooth="yes"/>
			<point x="527" y="582"/>
			<point x="605" y="488"/>
			<point x="605" y="358" type="curve" smooth="yes"/>
			<point x="605" y="224"/>
			<point x="529" y="133"/>
		</contour>
	</outline>
</glyph>
<glyph name="T" format="2">
	<unicode hex="0054"/>
	<advance width="625"/>
	<outline>
		<contour>
			<point x="395" y="0" type="line"/>
			<point x="395" y="582" type="line"/>
			<point x="230" y="582" type="line"/>
			<point x="230" y="0" type="line"/>
		</contour>
		<contour>
			<point x="596" y="572" type="line"/>
			<point x="596" y="715" type="line"/>
			<point x="29" y="715" type="line"/>
			<point x="29" y="572" type="line"/>
		</contour>
	</outline>
	<anchor name="bottom.UC" x="324" y="-50"/>
	<anchor name="top.UC" x="312" y="750"/>
</glyph>
<glyph name="U" format="2">
	<unicode hex="0055"/>
	<advance width="738"/>
	<outline>
		<contour>
			<point x="669" y="715" type="line"/>
			<point x="504" y="715" type="line"/>
			<point x="504" y="282" type="line" smooth="yes"/>
			<point x="504" y="195"/>
			<point x="453" y="133"/>
			<point x="369" y="133" type="curve" smooth="yes"/>
			<point x="285" y="133"/>
			<point x="235" y="195"/>
			<point x="235" y="282" type="curve" smooth="yes"/>
			<point x="235" y="715" type="line"/>
			<point x="69" y="715" type="line"/>
			<point x="69" y="282" type="line" smooth="yes"/>
			<point x="69" y="94"/>
			<point x="182" y="-16"/>
			<point x="369" y="-16" type="curve" smooth="yes"/>
			<point x="556" y="-16"/>
			<point x="669" y="94"/>
			<point x="669" y="282" type="curve" smooth="yes"/>
		</contour>
	</outline>
	<anchor name="bottom.UC" x="369" y="-50"/>
	<anchor name="ogonek.UC.round" x="400" y="-30"/>
	<anchor name="top.UC" x="369" y="750"/>
</glyph>
<glyph name="V" format="2">
	<unicode hex="0056"/>
	<advance width="754"/>
	<outline>
		<contour>
			<point x="459" y="0" type="line"/>
			<point x="726" y="715" type="line"/>
			<point x="553" y="715" type="line"/>
			<point x="363" y="143" type="line"/>
			<point x="401" y="143" type="line"/>
			<point x="208" y="715" type="line"/>
			<point x="28" y="715" type="line"/>
			<point x="295" y="0" type="line"/>
		</contour>
	</outline>
	<guideline y="343"/>
	<guideline y="605"/>
</glyph>
<glyph name="X" format="2">
	<unicode hex="0058"/>
	<advance width="739"/>
	<outline>
		<contour>
			<point x="217" y="0" type="line"/>
			<point x="384" y="275" type="line"/>
			<point x="356" y="275" type="line"/>
			<point x="524" y="0" type="line"/>
			<point x="719" y="0" type="line"/>
			<point x="464" y="387" type="line"/>
			<point x="461" y="346" type="line"/>
			<point x="696" y="715" type="line"/>
			<point x="502" y="715" type="line"/>
			<point x="358" y="460" type="line"/>
			<point x="387" y="460" type="line"/>
			<point x="239" y="715" type="line"/>
			<point x="43" y="715" type="line"/>
			<point x="282" y="346" type="line"/>
			<point x="280" y="387" type="line"/>
			<point x="20" y="0" type="line"/>
		</contour>
	</outline>
</glyph>
<glyph name="Y" format="2">
	<unicode hex="0059"/>
	<advance width="745"/>
	<outline>
		<contour>
			<point x="456" y="0" type="line"/>
			<point x="456" y="276" type="line"/>
			<point x="717" y="715" type="line"/>
			<point x="530" y="715" type="line"/>
			<point x="366" y="406" type="line"/>
			<point x="387" y="406" type="line"/>
			<point x="225" y="715" type="line"/>
			<point x="28" y="715" type="line"/>
			<point x="290" y="277" type="line"/>
			<point x="290" y="0" type="line"/>
		</contour>
	</outline>
	<anchor name="bottom.UC" x="377" y="-50"/>
	<anchor name="top.UC" x="377" y="750"/>
</glyph>
<glyph name="bracketleft" format="2">
	<unicode hex="005B"/>
	<advance width="336"/>
	<outline>
		<contour>
			<point x="312" y="-129" type="line"/>
			<point x="312" y="0" type="line"/>
			<point x="221" y="0" type="line"/>
			<point x="221" y="602" type="line"/>
			<point x="312" y="602" type="line"/>
			<point x="312" y="731" type="line"/>
			<point x="63" y="731" type="line"/>
			<point x="63" y="-129" type="line"/>
		</contour>
	</outline>
</glyph>
<glyph name="underscore" format="2">
	<unicode hex="005F"/>
	<advance width="469"/>
	<outline>
		<contour>
			<point x="469" y="-163" type="line"/>
			<point x="469" y="-31" type="line"/>
			<point x="0" y="-31" type="line"/>
			<point x="0" y="-163" type="line"/>
		</contour>
	</outline>
</glyph>
<glyph name="d" format="2">
	<unicode hex="0064"/>
	<advance width="647"/>
	<outline>
		<contour>
			<point x="422" y="0" type="line"/>
			<point x="422" y="110" type="line"/>
			<point x="421" y="120" type="line"/>
			<point x="421" y="258" type="line" smooth="yes"/>
			<point x="421" y="340"/>
			<point x="379" y="390"/>
			<point x="317" y="390" type="curve" smooth="yes"/>
			<point x="250" y="390"/>
			<point x="208" y="333"/>
			<point x="208" y="255" type="curve" smooth="yes"/>
			<point x="208" y="177"/>
			<point x="252" y="120"/>
			<point x="321" y="120" type="curve" smooth="yes"/>
			<point x="373" y="120"/>
			<point x="416" y="155"/>
			<point x="425" y="208" type="curve"/>
			<point x="462" y="192" type="line"/>
			<point x="462" y="77"/>
			<point x="397" y="-16"/>
			<point x="275" y="-16" type="curve" smooth="yes"/>
			<point x="149" y="-16"/>
			<point x="40" y="92"/>
			<point x="40" y="255" type="curve" smooth="yes"/>
			<point x="40" y="418"/>
			<point x="152" y="526"/>
			<point x="279" y="526" type="curve" smooth="yes"/>
			<point x="390" y="526"/>
			<point x="449" y="450"/>
			<point x="460" y="349" type="curve"/>
			<point x="421" y="349" type="line"/>
			<point x="421" y="720" type="line"/>
			<point x="584" y="720" type="line"/>
			<point x="584" y="0" type="line"/>
		</contour>
	</outline>
	<anchor name="top_right" x="708" y="540"/>
</glyph>
<glyph name="f" format="2">
	<unicode hex="0066"/>
	<advance width="416"/>
	<outline>
		<contour>
			<point x="271" y="0" type="line"/>
			<point x="271" y="541" type="line" smooth="yes"/>
			<point x="271" y="580"/>
			<point x="283" y="593"/>
			<point x="317" y="593" type="curve" smooth="yes"/>
			<point x="379" y="593" type="line"/>
			<point x="379" y="720" type="line"/>
			<point x="255" y="720" type="line" smooth="yes"/>
			<point x="155" y="720"/>
			<point x="108" y="670"/>
			<point x="108" y="566" type="curve" smooth="yes"/>
			<point x="108" y="0" type="line"/>
		</contour>
		<contour>
			<point x="379" y="379" type="line"/>
			<point x="379" y="510" type="line"/>
			<point x="35" y="510" type="line"/>
			<point x="35" y="379" type="line"/>
		</contour>
	</outline>
</glyph>
<glyph name="h" format="2">
	<unicode hex="0068"/>
	<advance width="605"/>
	<outline>
		<contour>
			<point x="548" y="0" type="line"/>
			<point x="548" y="312" type="line" smooth="yes"/>
			<point x="548" y="450"/>
			<point x="479" y="526"/>
			<point x="367" y="526" type="curve" smooth="yes"/>
			<point x="304" y="526"/>
			<point x="219" y="493"/>
			<point x="207" y="350" type="curve"/>
			<point x="226" y="350" type="line"/>
			<point x="226" y="720" type="line"/>
			<point x="63" y="720" type="line"/>
			<point x="63" y="0" type="line"/>
			<point x="226" y="0" type="line"/>
			<point x="226" y="259" type="line" smooth="yes"/>
			<point x="226" y="352"/>
			<point x="268" y="391"/>
			<point x="315" y="391" type="curve" smooth="yes"/>
			<point x="358" y="391"/>
			<point x="385" y="359"/>
			<point x="385" y="296" type="curve" smooth="yes"/>
			<point x="385" y="0" type="line"/>
		</contour>
	</outline>
	<anchor name="bottom.LC" x="305" y="-50"/>
</glyph>
<glyph name="m" format="2">
	<unicode hex="006D"/>
	<advance width="891"/>
	<outline>
		<contour>
			<point x="833" y="0" type="line"/>
			<point x="833" y="312" type="line" smooth="yes"/>
			<point x="833" y="450"/>
			<point x="767" y="526"/>
			<point x="660" y="526" type="curve" smooth="yes"/>
			<point x="599" y="526"/>
			<point x="519" y="500"/>
			<point x="492" y="396" type="curve"/>
			<point x="506" y="396" type="line"/>
			<point x="488" y="483"/>
			<point x="436" y="526"/>
			<point x="361" y="526" type="curve" smooth="yes"/>
			<point x="308" y="526"/>
			<point x="243" y="502"/>
			<point x="217" y="409" type="curve"/>
			<point x="225" y="408" type="line"/>
			<point x="225" y="510" type="line"/>
			<point x="63" y="510" type="line"/>
			<point x="63" y="0" type="line"/>
			<point x="226" y="0" type="line"/>
			<point x="226" y="266" type="line" smooth="yes"/>
			<point x="226" y="354"/>
			<point x="264" y="391"/>
			<point x="305" y="391" type="curve" smooth="yes"/>
			<point x="343" y="391"/>
			<point x="366" y="361"/>
			<point x="366" y="301" type="curve" smooth="yes"/>
			<point x="366" y="0" type="line"/>
			<point x="529" y="0" type="line"/>
			<point x="529" y="266" type="line" smooth="yes"/>
			<point x="529" y="354"/>
			<point x="567" y="391"/>
			<point x="608" y="391" type="curve" smooth="yes"/>
			<point x="646" y="391"/>
			<point x="670" y="361"/>
			<point x="670" y="301" type="curve" smooth="yes"/>
			<point x="670" y="0" type="line"/>
		</contour>
	</outline>
</glyph>
<glyph name="n" format="2">
	<unicode hex="006E"/>
	<advance width="606"/>
	<outline>
		<contour>
			<point x="548" y="0" type="line"/>
			<point x="548" y="312" type="line" smooth="yes"/>
			<point x="548" y="450"/>
			<point x="479" y="526"/>
			<point x="367" y="526" type="curve" smooth="yes"/>
			<point x="304" y="526"/>
			<point x="219" y="493"/>
			<point x="207" y="350" type="curve"/>
			<point x="225" y="350" type="line"/>
			<point x="225" y="510" type="line"/>
			<point x="63" y="510" type="line"/>
			<point x="63" y="0" type="line"/>
			<point x="226" y="0" type="line"/>
			<point x="226" y="259" type="line" smooth="yes"/>
			<point x="226" y="352"/>
			<point x="268" y="391"/>
			<point x="315" y="391" type="curve" smooth="yes"/>
			<point x="358" y="391"/>
			<point x="385" y="359"/>
			<point x="385" y="296" type="curve" smooth="yes"/>
			<point x="385" y="0" type="line"/>
		</contour>
	</outline>
	<anchor name="top.LC" x="315" y="544"/>
	<anchor name="bottom.LC" x="305" y="-50"/>
</glyph>
<glyph name="o" format="2">
	<unicode hex="006F"/>
	<advance width="627"/>
	<outline>
		<contour>
			<point x="313" y="-16" type="curve" smooth="yes"/>
			<point x="476" y="-16"/>
			<point x="587" y="96"/>
			<point x="587" y="255" type="curve" smooth="yes"/>
			<point x="587" y="414"/>
			<point x="476" y="526"/>
			<point x="313" y="526" type="curve" smooth="yes"/>
			<point x="151" y="526"/>
			<point x="40" y="414"/>
			<point x="40" y="255" type="curve" smooth="yes"/>
			<point x="40" y="96"/>
			<point x="151" y="-16"/>
		</contour>
		<contour>
			<point x="313" y="120" type="curve" smooth="yes"/>
			<point x="251" y="120"/>
			<point x="208" y="176"/>
			<point x="208" y="255" type="curve" smooth="yes"/>
			<point x="208" y="334"/>
			<point x="251" y="390"/>
			<point x="313" y="390" type="curve" smooth="yes"/>
			<point x="376" y="390"/>
			<point x="419" y="334"/>
			<point x="419" y="255" type="curve" smooth="yes"/>
			<point x="419" y="176"/>
			<point x="376" y="120"/>
		</contour>
	</outline>
	<anchor name="bottom.LC" x="313" y="-50"/>
	<anchor name="top.LC" x="313" y="544"/>
</glyph>
<glyph name="q" format="2">
	<unicode hex="0071"/>
	<advance width="647"/>
	<outline>
		<contour>
			<point x="421" y="-194" type="line"/>
			<point x="421" y="258" type="line" smooth="yes"/>
			<point x="421" y="340"/>
			<point x="380" y="391"/>
			<point x="318" y="391" type="curve" smooth="yes"/>
			<point x="251" y="391"/>
			<point x="208" y="333"/>
			<point x="208" y="255" type="curve" smooth="yes"/>
			<point x="208" y="177"/>
			<point x="252" y="120"/>
			<point x="321" y="120" type="curve" smooth="yes"/>
			<point x="373" y="120"/>
			<point x="416" y="155"/>
			<point x="425" y="208" type="curve"/>
			<point x="462" y="192" type="line"/>
			<point x="462" y="77"/>
			<point x="397" y="-16"/>
			<point x="275" y="-16" type="curve" smooth="yes"/>
			<point x="149" y="-16"/>
			<point x="40" y="92"/>
			<point x="40" y="255" type="curve" smooth="yes"/>
			<point x="40" y="417"/>
			<point x="152" y="526"/>
			<point x="279" y="526" type="curve" smooth="yes"/>
			<point x="386" y="526"/>
			<point x="446" y="449"/>
			<point x="456" y="349" type="curve"/>
			<point x="422" y="349" type="line"/>
			<point x="422" y="510" type="line"/>
			<point x="584" y="510" type="line"/>
			<point x="584" y="-194" type="line"/>
		</contour>
	</outline>
</glyph>
<glyph name="r" format="2">
	<unicode hex="0072"/>
	<advance width="414"/>
	<outline>
		<contour>
			<point x="391" y="519" type="line"/>
			<point x="367" y="519" type="line" smooth="yes"/>
			<point x="304" y="519"/>
			<point x="219" y="486"/>
			<point x="207" y="343" type="curve"/>
			<point x="225" y="343" type="line"/>
			<point x="225" y="510" type="line"/>
			<point x="63" y="510" type="line"/>
			<point x="63" y="0" type="line"/>
			<point x="226" y="0" type="line"/>
			<point x="226" y="219" type="line" smooth="yes"/>
			<point x="226" y="325"/>
			<point x="268" y="370"/>
			<point x="359" y="370" type="curve" smooth="yes"/>
			<point x="391" y="370" type="line"/>
		</contour>
	</outline>
	<anchor name="top.LC" x="222" y="544"/>
</glyph>
<glyph name="t" format="2">
	<unicode hex="0074"/>
	<advance width="417"/>
	<outline>
		<contour>
			<point x="380" y="0" type="line"/>
			<point x="380" y="134" type="line"/>
			<point x="318" y="134" type="line" smooth="yes"/>
			<point x="283" y="134"/>
			<point x="271" y="147"/>
			<point x="271" y="186" type="curve" smooth="yes"/>
			<point x="271" y="636" type="line"/>
			<point x="108" y="636" type="line"/>
			<point x="108" y="154" type="line" smooth="yes"/>
			<point x="108" y="50"/>
			<point x="155" y="0"/>
			<point x="256" y="0" type="curve" smooth="yes"/>
		</contour>
		<contour>
			<point x="376" y="379" type="line"/>
			<point x="376" y="510" type="line"/>
			<point x="35" y="510" type="line"/>
			<point x="35" y="379" type="line"/>
		</contour>
	</outline>
	<anchor name="bottom.LC" x="282" y="-50"/>
	<anchor name="top_right.LC.short" x="343" y="540"/>
</glyph>
<glyph name="x" format="2">
	<unicode hex="0078"/>
	<advance width="572"/>
	<outline>
		<contour>
			<point x="189" y="0" type="line"/>
			<point x="286" y="164" type="line"/>
			<point x="384" y="0" type="line"/>
			<point x="571" y="0" type="line"/>
			<point x="391" y="265" type="line"/>
			<point x="559" y="510" type="line"/>
			<point x="369" y="510" type="line"/>
			<point x="286" y="363" type="line"/>
			<point x="203" y="510" type="line"/>
			<point x="15" y="510" type="line"/>
			<point x="182" y="265" type="line"/>
			<point x="1" y="0" type="line"/>
		</contour>
	</outline>
</glyph>
<glyph name="braceright" format="2">
	<unicode hex="007D"/>
	<advance width="394"/>
	<outline>
		<contour>
			<point x="39" y="-2" type="line"/>
			<point x="83" y="-2" type="line" smooth="yes"/>
			<point x="118" y="-2"/>
			<point x="130" y="11"/>
			<point x="130" y="50" type="curve" smooth="yes"/>
			<point x="130" y="165" type="line" smooth="yes"/>
			<point x="130" y="267"/>
			<point x="177" y="317"/>
			<point x="277" y="317" type="curve"/>
			<point x="277" y="288" type="line"/>
			<point x="177" y="288"/>
			<point x="130" y="338"/>
			<point x="130" y="442" type="curve" smooth="yes"/>
			<point x="130" y="552" type="line" smooth="yes"/>
			<point x="130" y="591"/>
			<point x="118" y="604"/>
			<point x="83" y="604" type="curve" smooth="yes"/>
			<point x="39" y="604" type="line"/>
			<point x="39" y="731" type="line"/>
			<point x="141" y="731" type="line" smooth="yes"/>
			<point x="240" y="731"/>
			<point x="288" y="681"/>
			<point x="288" y="577" type="curve" smooth="yes"/>
			<point x="288" y="418" type="line" smooth="yes"/>
			<point x="288" y="379"/>
			<point x="300" y="366"/>
			<point x="334" y="366" type="curve" smooth="yes"/>
			<point x="355" y="366" type="line"/>
			<point x="355" y="239" type="line"/>
			<point x="334" y="239" type="line" smooth="yes"/>
			<point x="300" y="239"/>
			<point x="288" y="226"/>
			<point x="288" y="187" type="curve" smooth="yes"/>
			<point x="288" y="25" type="line" smooth="yes"/>
			<point x="288" y="-79"/>
			<point x="240" y="-129"/>
			<point x="141" y="-129" type="curve" smooth="yes"/>
			<point x="39" y="-129" type="line"/>
		</contour>
	</outline>
</glyph>
<glyph name="exclamdown" format="2">
	<unicode hex="00A1"/>
	<advance width="288"/>
	<outline>
		<contour>
			<point x="108" y="260" type="line"/>
			<point x="98" y="204"/>
			<point x="56" y="-115"/>
			<point x="56" y="-137" type="curve" smooth="yes"/>
			<point x="56" y="-197"/>
			<point x="98" y="-234"/>
			<point x="148" y="-234" type="curve"/>
			<point x="198" y="-234"/>
			<point x="240" y="-197"/>
			<point x="240" y="-137" type="curve" smooth="yes"/>
			<point x="240" y="-115"/>
			<point x="199" y="204"/>
			<point x="189" y="260" type="curve"/>
		</contour>
		<contour>
			<point x="148" y="510" type="curve" smooth="yes"/>
			<point x="91" y="510"/>
			<point x="49" y="469"/>
			<point x="49" y="412" type="curve" smooth="yes"/>
			<point x="49" y="355"/>
			<point x="91" y="314"/>
			<point x="148" y="314" type="curve" smooth="yes"/>
			<point x="205" y="314"/>
			<point x="247" y="355"/>
			<point x="247" y="412" type="curve" smooth="yes"/>
			<point x="247" y="469"/>
			<point x="205" y="510"/>
		</contour>
	</outline>
</glyph>
<glyph name="brokenbar" format="2">
	<unicode hex="00A6"/>
	<advance width="284"/>
	<outline>
		<contour>
			<point x="221" y="390" type="line"/>
			<point x="221" y="736" type="line"/>
			<point x="63" y="736" type="line"/>
			<point x="63" y="390" type="line"/>
		</contour>
		<contour>
			<point x="221" y="-129" type="line"/>
			<point x="221" y="217" type="line"/>
			<point x="63" y="217" type="line"/>
			<point x="63" y="-129" type="line"/>
		</contour>
	</outline>
</glyph>
<glyph name="section" format="2">
	<unicode hex="00A7"/>
	<advance width="513"/>
	<outline>
		<contour>
			<point x="495" y="322" type="curve" smooth="yes"/>
			<point x="495" y="413"/>
			<point x="425" y="470"/>
			<point x="281" y="495" type="curve" smooth="yes"/>
			<point x="208" y="508"/>
			<point x="182" y="526"/>
			<point x="182" y="563" type="curve" smooth="yes"/>
			<point x="182" y="597"/>
			<point x="210" y="617"/>
			<point x="258" y="617" type="curve" smooth="yes"/>
			<point x="306" y="617"/>
			<point x="360" y="588"/>
			<point x="393" y="544" type="curve"/>
			<point x="473" y="634" type="line"/>
			<point x="420" y="697"/>
			<point x="344" y="731"/>
			<point x="257" y="731" type="curve" smooth="yes"/>
			<point x="134" y="731"/>
			<point x="45" y="655"/>
			<point x="45" y="549" type="curve" smooth="yes"/>
			<point x="45" y="495"/>
			<point x="67" y="450"/>
			<point x="107" y="420" type="curve"/>
			<point x="54" y="386"/>
			<point x="25" y="337"/>
			<point x="25" y="280" type="curve" smooth="yes"/>
			<point x="25" y="189"/>
			<point x="97" y="132"/>
			<point x="242" y="106" type="curve" smooth="yes"/>
			<point x="318" y="92"/>
			<point x="343" y="76"/>
			<point x="343" y="40" type="curve" smooth="yes"/>
			<point x="343" y="5"/>
			<point x="315" y="-13"/>
			<point x="260" y="-13" type="curve" smooth="yes"/>
			<point x="197" y="-13"/>
			<point x="138" y="18"/>
			<point x="108" y="59" type="curve"/>
			<point x="28" y="-30" type="line"/>
			<point x="78" y="-90"/>
			<point x="167" y="-128"/>
			<point x="256" y="-128" type="curve" smooth="yes"/>
			<point x="388" y="-128"/>
			<point x="480" y="-54"/>
			<point x="480" y="52" type="curve" smooth="yes"/>
			<point x="480" y="103"/>
			<point x="456" y="149"/>
			<point x="412" y="181" type="curve"/>
			<point x="466" y="215"/>
			<point x="495" y="264"/>
		</contour>
		<contour>
			<point x="357" y="293" type="curve" smooth="yes"/>
			<point x="357" y="262"/>
			<point x="335" y="237"/>
			<point x="297" y="225" type="curve"/>
			<point x="279" y="229" type="line" smooth="yes"/>
			<point x="188" y="249"/>
			<point x="162" y="266"/>
			<point x="162" y="308" type="curve" smooth="yes"/>
			<point x="162" y="338"/>
			<point x="186" y="365"/>
			<point x="223" y="376" type="curve"/>
			<point x="240" y="372" type="line" smooth="yes"/>
			<point x="331" y="352"/>
			<point x="357" y="334"/>
		</contour>
	</outline>
</glyph>
<glyph name="copyright" format="2">
	<unicode hex="00A9"/>
	<advance width="848"/>
	<outline>
		<contour>
			<point x="521" y="299" type="line"/>
			<point x="500" y="268"/>
			<point x="469" y="249"/>
			<point x="437" y="249" type="curve" smooth="yes"/>
			<point x="384" y="249"/>
			<point x="347" y="294"/>
			<point x="347" y="359" type="curve" smooth="yes"/>
			<point x="347" y="423"/>
			<point x="384" y="468"/>
			<point x="437" y="468" type="curve" smooth="yes"/>
			<point x="469" y="468"/>
			<point x="500" y="449"/>
			<point x="521" y="419" type="curve"/>
			<point x="596" y="496" type="line"/>
			<point x="562" y="540"/>
			<point x="505" y="572"/>
			<point x="430" y="572" type="curve" smooth="yes"/>
			<point x="307" y="572"/>
			<point x="217" y="484"/>
			<point x="217" y="359" type="curve" smooth="yes"/>
			<point x="217" y="232"/>
			<point x="305" y="145"/>
			<point x="428" y="145" type="curve" smooth="yes"/>
			<point x="503" y="145"/>
			<point x="562" y="176"/>
			<point x="596" y="220" type="curve"/>
		</contour>
		<contour>
			<point x="424" y="-26" type="curve" smooth="yes"/>
			<point x="638" y="-26"/>
			<point x="805" y="143"/>
			<point x="805" y="358" type="curve" smooth="yes"/>
			<point x="805" y="573"/>
			<point x="638" y="742"/>
			<point x="424" y="742" type="curve" smooth="yes"/>
			<point x="210" y="742"/>
			<point x="43" y="573"/>
			<point x="43" y="358" type="curve" smooth="yes"/>
			<point x="43" y="143"/>
			<point x="210" y="-26"/>
		</contour>
		<contour>
			<point x="424" y="67" type="curve" smooth="yes"/>
			<point x="263" y="67"/>
			<point x="137" y="195"/>
			<point x="137" y="358" type="curve" smooth="yes"/>
			<point x="137" y="521"/>
			<point x="263" y="649"/>
			<point x="424" y="649" type="curve" smooth="yes"/>
			<point x="585" y="649"/>
			<point x="711" y="521"/>
			<point x="711" y="358" type="curve" smooth="yes"/>
			<point x="711" y="195"/>
			<point x="585" y="67"/>
		</contour>
	</outline>
</glyph>
<glyph name="ordfeminine" format="2">
	<unicode hex="00AA"/>
	<advance width="448"/>
	<outline>
		<contour>
			<point x="414" y="301" type="line"/>
			<point x="414" y="541" type="line" smooth="yes"/>
			<point x="414" y="654"/>
			<point x="333" y="715"/>
			<point x="211" y="715" type="curve" smooth="yes"/>
			<point x="145" y="715"/>
			<point x="78" y="692"/>
			<point x="41" y="655" type="curve"/>
			<point x="105" y="572" type="line"/>
			<point x="131" y="595"/>
			<point x="165" y="610"/>
			<point x="201" y="610" type="curve" smooth="yes"/>
			<point x="248" y="610"/>
			<point x="278" y="587"/>
			<point x="278" y="539" type="curve" smooth="yes"/>
			<point x="278" y="387" type="line"/>
			<point x="287" y="385" type="line"/>
			<point x="287" y="301" type="line"/>
		</contour>
		<contour>
			<point x="174" y="288" type="curve" smooth="yes"/>
			<point x="263" y="288"/>
			<point x="317" y="351"/>
			<point x="317" y="451" type="curve"/>
			<point x="287" y="464" type="line"/>
			<point x="282" y="422"/>
			<point x="253" y="390"/>
			<point x="217" y="390" type="curve" smooth="yes"/>
			<point x="191" y="390"/>
			<point x="174" y="406"/>
			<point x="174" y="429" type="curve" smooth="yes"/>
			<point x="174" y="453"/>
			<point x="193" y="470"/>
			<point x="230" y="470" type="curve" smooth="yes"/>
			<point x="285" y="470" type="line"/>
			<point x="285" y="553" type="line"/>
			<point x="223" y="553" type="line" smooth="yes"/>
			<point x="99" y="553"/>
			<point x="28" y="503"/>
			<point x="28" y="422" type="curve" smooth="yes"/>
			<point x="28" y="341"/>
			<point x="88" y="288"/>
		</contour>
	</outline>
</glyph>
<glyph name="logicalnot" format="2">
	<unicode hex="00AC"/>
	<advance width="632"/>
	<outline>
		<contour>
			<point x="538" y="142" type="line"/>
			<point x="538" y="425" type="line"/>
			<point x="94" y="425" type="line"/>
			<point x="94" y="293" type="line"/>
			<point x="409" y="293" type="line"/>
			<point x="409" y="142" type="line"/>
		</contour>
	</outline>
</glyph>
<glyph name="micro" format="2">
	<unicode hex="00B5"/>
	<advance width="632"/>
	<outline>
		<contour>
			<point x="396" y="0" type="line"/>
			<point x="558" y="0" type="line"/>
			<point x="558" y="510" type="line"/>
			<point x="395" y="510" type="line"/>
			<point x="395" y="124" type="line"/>
			<point x="396" y="96" type="line"/>
		</contour>
		<contour>
			<point x="75" y="-194" type="line"/>
			<point x="238" y="-194" type="line"/>
			<point x="238" y="92" type="line"/>
			<point x="154" y="48" type="line"/>
			<point x="171" y="6"/>
			<point x="214" y="-16"/>
			<point x="269" y="-16" type="curve" smooth="yes"/>
			<point x="370" y="-16"/>
			<point x="431" y="68"/>
			<point x="432" y="192" type="curve"/>
			<point x="400" y="208" type="line"/>
			<point x="391" y="157"/>
			<point x="352" y="120"/>
			<point x="307" y="120" type="curve" smooth="yes"/>
			<point x="265" y="120"/>
			<point x="238" y="149"/>
			<point x="238" y="206" type="curve" smooth="yes"/>
			<point x="238" y="510" type="line"/>
			<point x="75" y="510" type="line"/>
		</contour>
	</outline>
</glyph>
<glyph name="questiondown" format="2">
	<unicode hex="00BF"/>
	<advance width="601"/>
	<outline>
		<contour>
			<point x="259" y="261" type="line"/>
			<point x="259" y="216"/>
			<point x="243" y="192"/>
			<point x="189" y="163" type="curve" smooth="yes"/>
			<point x="95" y="113"/>
			<point x="61" y="64"/>
			<point x="61" y="-21" type="curve" smooth="yes"/>
			<point x="61" y="-147"/>
			<point x="160" y="-234"/>
			<point x="303" y="-234" type="curve" smooth="yes"/>
			<point x="404" y="-234"/>
			<point x="499" y="-186"/>
			<point x="567" y="-100" type="curve"/>
			<point x="462" y="7" type="line"/>
			<point x="420" y="-58"/>
			<point x="366" y="-93"/>
			<point x="308" y="-93" type="curve" smooth="yes"/>
			<point x="258" y="-93"/>
			<point x="225" y="-63"/>
			<point x="225" y="-16" type="curve" smooth="yes"/>
			<point x="225" y="14"/>
			<point x="242" y="35"/>
			<point x="280" y="56" type="curve" smooth="yes"/>
			<point x="369" y="107"/>
			<point x="393" y="155"/>
			<point x="378" y="261" type="curve"/>
		</contour>
		<contour>
			<point x="317" y="510" type="curve" smooth="yes"/>
			<point x="260" y="510"/>
			<point x="218" y="469"/>
			<point x="218" y="412" type="curve" smooth="yes"/>
			<point x="218" y="355"/>
			<point x="260" y="314"/>
			<point x="317" y="314" type="curve" smooth="yes"/>
			<point x="374" y="314"/>
			<point x="416" y="355"/>
			<point x="416" y="412" type="curve" smooth="yes"/>
			<point x="416" y="469"/>
			<point x="374" y="510"/>
		</contour>
	</outline>
</glyph>
<glyph name="AE" format="2">
	<unicode hex="00C6"/>
	<advance width="1061"/>
	<outline>
		<contour>
			<point x="26" y="0" type="line"/>
			<point x="211" y="0" type="line"/>
			<point x="609" y="715" type="line"/>
			<point x="450" y="715" type="line"/>
		</contour>
		<contour>
			<point x="610" y="130" type="line"/>
			<point x="610" y="273" type="line"/>
			<point x="246" y="273" type="line"/>
			<point x="246" y="130" type="line"/>
		</contour>
		<contour>
			<point x="1018" y="0" type="line"/>
			<point x="1018" y="141" type="line"/>
			<point x="692" y="141" type="line"/>
			<point x="692" y="574" type="line"/>
			<point x="1018" y="574" type="line"/>
			<point x="1018" y="715" type="line"/>
			<point x="526" y="715" type="line"/>
			<point x="526" y="0" type="line"/>
		</contour>
		<contour>
			<point x="1000" y="289" type="line"/>
			<point x="1000" y="430" type="line"/>
			<point x="683" y="430" type="line"/>
			<point x="683" y="289" type="line"/>
		</contour>
	</outline>
</glyph>
<glyph name="germandbls" format="2">
	<unicode hex="00DF"/>
	<advance width="651"/>
	<outline>
		<contour>
			<point x="232" y="0" type="line"/>
			<point x="232" y="457" type="line" smooth="yes"/>
			<point x="232" y="557"/>
			<point x="267" y="599"/>
			<point x="321" y="599" type="curve" smooth="yes"/>
			<point x="370" y="599"/>
			<point x="394" y="566"/>
			<point x="394" y="522" type="curve" smooth="yes"/>
			<point x="394" y="472"/>
			<point x="363" y="437"/>
			<point x="318" y="437" type="curve" smooth="yes"/>
			<point x="297" y="437" type="line"/>
			<point x="297" y="303" type="line"/>
			<point x="340" y="303" type="line" smooth="yes"/>
			<point x="402" y="303"/>
			<point x="449" y="263"/>
			<point x="449" y="201" type="curve" smooth="yes"/>
			<point x="449" y="152"/>
			<point x="422" y="116"/>
			<point x="382" y="116" type="curve" smooth="yes"/>
			<point x="354" y="116"/>
			<point x="333" y="126"/>
			<point x="314" y="140" type="curve"/>
			<point x="262" y="27" type="line"/>
			<point x="288" y="2"/>
			<point x="347" y="-16"/>
			<point x="396" y="-16" type="curve" smooth="yes"/>
			<point x="531" y="-16"/>
			<point x="617" y="70"/>
			<point x="617" y="193" type="curve" smooth="yes"/>
			<point x="617" y="334"/>
			<point x="506" y="414"/>
			<point x="359" y="414" type="curve" smooth="yes"/>
			<point x="315" y="414" type="line"/>
			<point x="315" y="342" type="line"/>
			<point x="318" y="342" type="line" smooth="yes"/>
			<point x="469" y="342"/>
			<point x="562" y="420"/>
			<point x="562" y="527" type="curve" smooth="yes"/>
			<point x="562" y="639"/>
			<point x="465" y="731"/>
			<point x="319" y="731" type="curve" smooth="yes"/>
			<point x="169" y="731"/>
			<point x="63" y="636"/>
			<point x="63" y="467" type="curve" smooth="yes"/>
			<point x="63" y="0" type="line"/>
		</contour>
	</outline>
	<guideline x="332"/>
</glyph>
<glyph name="ae" format="2">
	<unicode hex="00E6"/>
	<advance width="926"/>
	<outline>
		<contour>
			<point x="808" y="161" type="line"/>
			<point x="777" y="131"/>
			<point x="733" y="111"/>
			<point x="676" y="111" type="curve" smooth="yes"/>
			<point x="588" y="111"/>
			<point x="546" y="162"/>
			<point x="546" y="258" type="curve" smooth="yes"/>
			<point x="546" y="350"/>
			<point x="577" y="401"/>
			<point x="640" y="401" type="curve" smooth="yes"/>
			<point x="698" y="401"/>
			<point x="725" y="358"/>
			<point x="725" y="272" type="curve" smooth="yes"/>
			<point x="725" y="255" type="line"/>
			<point x="883" y="255" type="line"/>
			<point x="883" y="261" type="line" smooth="yes"/>
			<point x="883" y="413"/>
			<point x="782" y="526"/>
			<point x="644" y="526" type="curve" smooth="yes"/>
			<point x="492" y="526"/>
			<point x="381" y="410"/>
			<point x="381" y="254" type="curve" smooth="yes"/>
			<point x="381" y="94"/>
			<point x="498" y="-16"/>
			<point x="671" y="-16" type="curve" smooth="yes"/>
			<point x="756" y="-16"/>
			<point x="832" y="11"/>
			<point x="886" y="60" type="curve"/>
		</contour>
		<contour>
			<point x="883" y="208" type="line"/>
			<point x="883" y="261" type="line"/>
			<point x="867" y="305" type="line"/>
			<point x="479" y="305" type="line"/>
			<point x="479" y="208" type="line"/>
		</contour>
		<contour>
			<point x="492" y="270" type="line"/>
			<point x="492" y="306" type="line" smooth="yes"/>
			<point x="492" y="447"/>
			<point x="400" y="526"/>
			<point x="277" y="526" type="curve" smooth="yes"/>
			<point x="189" y="526"/>
			<point x="118" y="502"/>
			<point x="52" y="450" type="curve"/>
			<point x="133" y="353" type="line"/>
			<point x="176" y="388"/>
			<point x="214" y="403"/>
			<point x="261" y="403" type="curve" smooth="yes"/>
			<point x="329" y="403"/>
			<point x="366" y="368"/>
			<point x="366" y="306" type="curve" smooth="yes"/>
			<point x="366" y="270" type="line"/>
		</contour>
		<contour>
			<point x="435" y="214" type="line"/>
			<point x="435" y="312" type="line"/>
			<point x="279" y="312" type="line" smooth="yes"/>
			<point x="125" y="312"/>
			<point x="36" y="255"/>
			<point x="36" y="148" type="curve" smooth="yes"/>
			<point x="36" y="51"/>
			<point x="110" y="-16"/>
			<point x="243" y="-16" type="curve" smooth="yes"/>
			<point x="395" y="-16"/>
			<point x="488" y="69"/>
			<point x="509" y="192" type="curve"/>
			<point x="399" y="209" type="line"/>
			<point x="405" y="136"/>
			<point x="333" y="101"/>
			<point x="274" y="101" type="curve" smooth="yes"/>
			<point x="225" y="101"/>
			<point x="197" y="125"/>
			<point x="197" y="157" type="curve" smooth="yes"/>
			<point x="197" y="194"/>
			<point x="232" y="214"/>
			<point x="288" y="214" type="curve" smooth="yes"/>
		</contour>
	</outline>
</glyph>
<glyph name="thorn" format="2">
	<unicode hex="00FE"/>
	<advance width="647"/>
	<outline>
		<contour>
			<point x="226" y="-194" type="line"/>
			<point x="226" y="258" type="line" smooth="yes"/>
			<point x="226" y="340"/>
			<point x="270" y="391"/>
			<point x="332" y="391" type="curve" smooth="yes"/>
			<point x="399" y="391"/>
			<point x="439" y="333"/>
			<point x="439" y="255" type="curve" smooth="yes"/>
			<point x="439" y="177"/>
			<point x="395" y="120"/>
			<point x="326" y="120" type="curve" smooth="yes"/>
			<point x="274" y="120"/>
			<point x="231" y="155"/>
			<point x="222" y="208" type="curve"/>
			<point x="185" y="192" type="line"/>
			<point x="185" y="77"/>
			<point x="250" y="-16"/>
			<point x="372" y="-16" type="curve" smooth="yes"/>
			<point x="498" y="-16"/>
			<point x="607" y="92"/>
			<point x="607" y="255" type="curve" smooth="yes"/>
			<point x="607" y="417"/>
			<point x="498" y="526"/>
			<point x="371" y="526" type="curve" smooth="yes"/>
			<point x="264" y="526"/>
			<point x="201" y="449"/>
			<point x="191" y="349" type="curve"/>
			<point x="225" y="349" type="line"/>
			<point x="225" y="720" type="line"/>
			<point x="63" y="720" type="line"/>
			<point x="63" y="-194" type="line"/>
		</contour>
	</outline>
	<guideline x="225"/>
</glyph>
<glyph name="dcroat" format="2">
	<unicode hex="0111"/>
	<advance width="668"/>
	<outline>
		<contour>
			<point x="660" y="539" type="line"/>
			<point x="660" y="653" type="line"/>
			<point x="283" y="653" type="line"/>
			<point x="283" y="539" type="line"/>
		</contour>
		<contour>
			<point x="584" y="0" type="line"/>
			<point x="584" y="720" type="line"/>
			<point x="421" y="720" type="line"/>
			<point x="421" y="329" type="line"/>
			<point x="460" y="329" type="line"/>
			<point x="449" y="424"/>
			<point x="390" y="496"/>
			<point x="279" y="496" type="curve" smooth="yes"/>
			<point x="152" y="496"/>
			<point x="40" y="394"/>
			<point x="40" y="240" type="curve" smooth="yes"/>
			<point x="40" y="86"/>
			<point x="149" y="-16"/>
			<point x="275" y="-16" type="curve" smooth="yes"/>
			<point x="397" y="-16"/>
			<point x="462" y="72"/>
			<point x="462" y="180" type="curve"/>
			<point x="425" y="196" type="line"/>
			<point x="416" y="145"/>
			<point x="373" y="112"/>
			<point x="321" y="112" type="curve" smooth="yes"/>
			<point x="252" y="112"/>
			<point x="208" y="166"/>
			<point x="208" y="240" type="curve" smooth="yes"/>
			<point x="208" y="314"/>
			<point x="250" y="367"/>
			<point x="317" y="367" type="curve" smooth="yes"/>
			<point x="379" y="367"/>
			<point x="421" y="320"/>
			<point x="421" y="243" type="curve" smooth="yes"/>
			<point x="421" y="112" type="line"/>
			<point x="422" y="103" type="line"/>
			<point x="422" y="0" type="line"/>
		</contour>
	</outline>
</glyph>
<glyph name="Hbar" format="2">
	<unicode hex="0126"/>
	<advance width="758"/>
	<outline>
		<contour>
			<point x="733" y="511" type="line"/>
			<point x="733" y="644" type="line"/>
			<point x="25" y="644" type="line"/>
			<point x="25" y="511" type="line"/>
		</contour>
		<contour>
			<point x="513" y="0" type="line"/>
			<point x="679" y="0" type="line"/>
			<point x="679" y="715" type="line"/>
			<point x="513" y="715" type="line"/>
		</contour>
		<contour>
			<point x="245" y="0" type="line"/>
			<point x="245" y="715" type="line"/>
			<point x="79" y="715" type="line"/>
			<point x="79" y="0" type="line"/>
		</contour>
		<contour>
			<point x="235" y="294" type="line"/>
			<point x="522" y="294" type="line"/>
			<point x="522" y="436" type="line"/>
			<point x="235" y="436" type="line"/>
		</contour>
	</outline>
</glyph>
<glyph name="IJ" format="2">
	<unicode hex="0132"/>
	<advance width="715"/>
	<outline>
		<contour>
			<point x="241" y="372" type="line"/>
			<point x="241" y="715" type="line"/>
			<point x="69" y="715" type="line"/>
			<point x="69" y="372" type="line"/>
		</contour>
		<contour>
			<point x="646" y="715" type="line"/>
			<point x="479" y="715" type="line"/>
			<point x="479" y="282" type="line" smooth="yes"/>
			<point x="479" y="184"/>
			<point x="439" y="133"/>
			<point x="358" y="133" type="curve" smooth="yes"/>
			<point x="288" y="133"/>
			<point x="247" y="184"/>
			<point x="240" y="282" type="curve"/>
			<point x="70" y="262" type="line"/>
			<point x="76" y="92"/>
			<point x="189" y="-16"/>
			<point x="358" y="-16" type="curve" smooth="yes"/>
			<point x="544" y="-16"/>
			<point x="646" y="89"/>
			<point x="646" y="282" type="curve" smooth="yes"/>
		</contour>
	</outline>
	<anchor name="top.UC_1" x="155" y="750"/>
	<anchor name="top.UC_2" x="562" y="750"/>
</glyph>
<glyph name="Lslash" format="2">
	<unicode hex="0141"/>
	<advance width="612"/>
	<outline>
		<contour>
			<point x="444" y="413" type="line"/>
			<point x="376" y="533" type="line"/>
			<point x="-3" y="301" type="line"/>
			<point x="65" y="182" type="line"/>
		</contour>
		<contour>
			<point x="584" y="0" type="line"/>
			<point x="584" y="145" type="line"/>
			<point x="278" y="145" type="line"/>
			<point x="278" y="715" type="line"/>
			<point x="112" y="715" type="line"/>
			<point x="112" y="0" type="line"/>
		</contour>
	</outline>
</glyph>
<glyph name="oe" format="2">
	<unicode hex="0153"/>
	<advance width="975"/>
	<outline>
		<contour>
			<point x="40" y="255" type="curve" smooth="yes"/>
			<point x="40" y="96"/>
			<point x="147" y="-16"/>
			<point x="303" y="-16" type="curve" smooth="yes"/>
			<point x="445" y="-16"/>
			<point x="544" y="96"/>
			<point x="544" y="255" type="curve" smooth="yes"/>
			<point x="544" y="414"/>
			<point x="445" y="526"/>
			<point x="303" y="526" type="curve" smooth="yes"/>
			<point x="147" y="526"/>
			<point x="40" y="414"/>
		</contour>
		<contour>
			<point x="208" y="255" type="curve" smooth="yes"/>
			<point x="208" y="334"/>
			<point x="251" y="390"/>
			<point x="313" y="390" type="curve" smooth="yes"/>
			<point x="376" y="390"/>
			<point x="419" y="334"/>
			<point x="419" y="255" type="curve" smooth="yes"/>
			<point x="419" y="176"/>
			<point x="376" y="120"/>
			<point x="313" y="120" type="curve" smooth="yes"/>
			<point x="251" y="120"/>
			<point x="208" y="176"/>
		</contour>
		<contour>
			<point x="857" y="161" type="line"/>
			<point x="826" y="131"/>
			<point x="782" y="111"/>
			<point x="725" y="111" type="curve" smooth="yes"/>
			<point x="637" y="111"/>
			<point x="595" y="162"/>
			<point x="595" y="258" type="curve" smooth="yes"/>
			<point x="595" y="350"/>
			<point x="626" y="401"/>
			<point x="689" y="401" type="curve" smooth="yes"/>
			<point x="747" y="401"/>
			<point x="774" y="358"/>
			<point x="774" y="272" type="curve" smooth="yes"/>
			<point x="774" y="255" type="line"/>
			<point x="932" y="255" type="line"/>
			<point x="932" y="261" type="line" smooth="yes"/>
			<point x="932" y="413"/>
			<point x="831" y="526"/>
			<point x="693" y="526" type="curve" smooth="yes"/>
			<point x="547" y="526"/>
			<point x="440" y="410"/>
			<point x="440" y="254" type="curve" smooth="yes"/>
			<point x="440" y="94"/>
			<point x="553" y="-16"/>
			<point x="720" y="-16" type="curve" smooth="yes"/>
			<point x="805" y="-16"/>
			<point x="881" y="11"/>
			<point x="935" y="60" type="curve"/>
		</contour>
		<contour>
			<point x="932" y="208" type="line"/>
			<point x="932" y="261" type="line"/>
			<point x="916" y="305" type="line"/>
			<point x="528" y="305" type="line"/>
			<point x="528" y="208" type="line"/>
		</contour>
	</outline>
</glyph>
<glyph name="tbar" format="2">
	<unicode hex="0167"/>
	<advance width="417"/>
	<outline>
		<contour>
			<point x="380" y="0" type="line"/>
			<point x="380" y="134" type="line"/>
			<point x="318" y="134" type="line" smooth="yes"/>
			<point x="283" y="134"/>
			<point x="271" y="147"/>
			<point x="271" y="186" type="curve" smooth="yes"/>
			<point x="271" y="636" type="line"/>
			<point x="108" y="636" type="line"/>
			<point x="108" y="154" type="line" smooth="yes"/>
			<point x="108" y="50"/>
			<point x="155" y="0"/>
			<point x="256" y="0" type="curve" smooth="yes"/>
		</contour>
		<contour>
			<point x="376" y="379" type="line"/>
			<point x="376" y="510" type="line"/>
			<point x="35" y="510" type="line"/>
			<point x="35" y="379" type="line"/>
		</contour>
		<contour>
			<point x="375" y="204" type="line"/>
			<point x="375" y="318" type="line"/>
			<point x="35" y="318" type="line"/>
			<point x="35" y="204" type="line"/>
		</contour>
	</outline>
</glyph>
<glyph name="Ohorn" format="2">
	<unicode hex="01A0"/>
	<advance width="835"/>
	<outline>
		<contour>
			<point x="414" y="-16" type="curve" smooth="yes"/>
			<point x="626" y="-16"/>
			<point x="779" y="141"/>
			<point x="779" y="357" type="curve" smooth="yes"/>
			<point x="779" y="465"/>
			<point x="742" y="565"/>
			<point x="661" y="640" type="curve"/>
			<point x="631" y="627" type="line"/>
			<point x="634" y="625"/>
			<point x="645" y="622"/>
			<point x="650" y="622" type="curve" smooth="yes"/>
			<point x="749" y="622"/>
			<point x="827" y="682"/>
			<point x="827" y="812" type="curve" smooth="yes"/>
			<point x="827" y="864" type="line"/>
			<point x="691" y="864" type="line"/>
			<point x="691" y="804" type="line" smooth="yes"/>
			<point x="691" y="738"/>
			<point x="667" y="715"/>
			<point x="595" y="715" type="curve" smooth="yes"/>
			<point x="573" y="715"/>
			<point x="534" y="719"/>
			<point x="492" y="724" type="curve" smooth="yes"/>
			<point x="484" y="725"/>
			<point x="449" y="731"/>
			<point x="415" y="731" type="curve" smooth="yes"/>
			<point x="199" y="731"/>
			<point x="48" y="575"/>
			<point x="48" y="358" type="curve" smooth="yes"/>
			<point x="48" y="141"/>
			<point x="201" y="-16"/>
		</contour>
		<contour>
			<point x="414" y="133" type="curve" smooth="yes"/>
			<point x="302" y="133"/>
			<point x="223" y="226"/>
			<point x="223" y="358" type="curve" smooth="yes"/>
			<point x="223" y="489"/>
			<point x="302" y="582"/>
			<point x="414" y="582" type="curve" smooth="yes"/>
			<point x="526" y="582"/>
			<point x="605" y="489"/>
			<point x="605" y="358" type="curve" smooth="yes"/>
			<point x="605" y="226"/>
			<point x="526" y="133"/>
		</contour>
	</outline>
	<anchor name="bottom.UC" x="414" y="-50"/>
	<anchor name="top.UC" x="414" y="750"/>
	<guideline x="414" y="0" angle="90"/>
</glyph>
<glyph name="uhorn" format="2">
	<unicode hex="01B0"/>
	<advance width="685"/>
	<outline>
		<contour>
			<point x="388" y="208" type="line"/>
			<point x="379" y="157"/>
			<point x="340" y="120"/>
			<point x="295" y="120" type="curve" smooth="yes"/>
			<point x="253" y="120"/>
			<point x="226" y="149"/>
			<point x="226" y="206" type="curve" smooth="yes"/>
			<point x="226" y="510" type="line"/>
			<point x="63" y="510" type="line"/>
			<point x="63" y="189" type="line" smooth="yes"/>
			<point x="63" y="56"/>
			<point x="132" y="-16"/>
			<point x="242" y="-16" type="curve" smooth="yes"/>
			<point x="352" y="-16"/>
			<point x="420" y="66"/>
			<point x="420" y="192" type="curve"/>
		</contour>
		<contour>
			<point x="384" y="0" type="line"/>
			<point x="546" y="0" type="line"/>
			<point x="546" y="429" type="line"/>
			<point x="531" y="415" type="line"/>
			<point x="644" y="425"/>
			<point x="702" y="480"/>
			<point x="702" y="585" type="curve" smooth="yes"/>
			<point x="702" y="626" type="line"/>
			<point x="574" y="626" type="line"/>
			<point x="574" y="582" type="line" smooth="yes"/>
			<point x="574" y="533"/>
			<point x="550" y="510"/>
			<point x="503" y="510" type="curve" smooth="yes"/>
			<point x="383" y="510" type="line"/>
			<point x="383" y="124" type="line"/>
			<point x="384" y="96" type="line"/>
		</contour>
	</outline>
	<anchor name="bottom.LC" x="279" y="-50"/>
	<anchor name="top.LC" x="304" y="544"/>
	<guideline x="760" y="0" angle="90"/>
</glyph>
<glyph name="dotlessj" format="2">
	<unicode hex="0237"/>
	<advance width="289"/>
	<outline>
		<contour>
			<point x="-21" y="-194" type="line"/>
			<point x="79" y="-194" type="line" smooth="yes"/>
			<point x="179" y="-194"/>
			<point x="226" y="-144"/>
			<point x="226" y="-40" type="curve" smooth="yes"/>
			<point x="226" y="510" type="line"/>
			<point x="63" y="510" type="line"/>
			<point x="63" y="-8" type="line" smooth="yes"/>
			<point x="63" y="-47"/>
			<point x="51" y="-60"/>
			<point x="17" y="-60" type="curve" smooth="yes"/>
			<point x="-21" y="-60" type="line"/>
		</contour>
	</outline>
	<anchor name="top.LC" x="145" y="544"/>
</glyph>
<glyph name="hookabovecomb" format="2">
	<unicode hex="0309"/>
	<outline>
		<contour>
			<point x="-5" y="559" type="line"/>
			<point x="78" y="592"/>
			<point x="122" y="639"/>
			<point x="122" y="696" type="curve" smooth="yes"/>
			<point x="122" y="757"/>
			<point x="73" y="801"/>
			<point x="2" y="801" type="curve" smooth="yes"/>
			<point x="-42" y="801"/>
			<point x="-80" y="784"/>
			<point x="-113" y="750" type="curve"/>
			<point x="-66" y="688" type="line"/>
			<point x="-45" y="705"/>
			<point x="-30" y="711"/>
			<point x="-15" y="711" type="curve" smooth="yes"/>
			<point x="6" y="711"/>
			<point x="18" y="700"/>
			<point x="18" y="682" type="curve" smooth="yes"/>
			<point x="18" y="662"/>
			<point x="2" y="646"/>
			<point x="-40" y="625" type="curve"/>
		</contour>
	</outline>
	<anchor name="_top.LC" x="0" y="544"/>
</glyph>
<glyph name="ringcomb" format="2">
	<unicode hex="030A"/>
	<outline>
		<contour>
			<point x="132" y="684" type="curve" smooth="yes"/>
			<point x="132" y="757"/>
			<point x="74" y="814"/>
			<point x="0" y="814" type="curve" smooth="yes"/>
			<point x="-74" y="814"/>
			<point x="-132" y="757"/>
			<point x="-132" y="684" type="curve" smooth="yes"/>
			<point x="-132" y="611"/>
			<point x="-74" y="554"/>
			<point x="0" y="554" type="curve" smooth="yes"/>
			<point x="74" y="554"/>
			<point x="132" y="611"/>
		</contour>
		<contour>
			<point x="48" y="684" type="curve" smooth="yes"/>
			<point x="48" y="655"/>
			<point x="26" y="633"/>
			<point x="0" y="633" type="curve" smooth="yes"/>
			<point x="-26" y="633"/>
			<point x="-48" y="655"/>
			<point x="-48" y="684" type="curve" smooth="yes"/>
			<point x="-48" y="711"/>
			<point x="-26" y="733"/>
			<point x="0" y="733" type="curve" smooth="yes"/>
			<point x="26" y="733"/>
			<point x="48" y="711"/>
		</contour>
	</outline>
	<anchor name="_top.LC" x="0" y="544"/>
</glyph>
<glyph name="commaaboverightcomb" format="2">
	<unicode hex="0315"/>
	<outline>
		<contour>
			<point x="1" y="471" type="line"/>
			<point x="47" y="516"/>
			<point x="89" y="588"/>
			<point x="89" y="639" type="curve" smooth="yes"/>
			<point x="89" y="693"/>
			<point x="56" y="731"/>
			<point x="6" y="731" type="curve" smooth="yes"/>
			<point x="-39" y="731"/>
			<point x="-72" y="697"/>
			<point x="-72" y="652" type="curve" smooth="yes"/>
			<point x="-72" y="610"/>
			<point x="-37" y="575"/>
			<point x="9" y="575" type="curve"/>
			<point x="-15" y="601" type="line"/>
			<point x="-13" y="567"/>
			<point x="-40" y="513"/>
			<point x="-80" y="471" type="curve"/>
		</contour>
	</outline>
	<anchor name="_top_right" x="0" y="540"/>
</glyph>
<glyph name="dotbelowcomb" format="2">
	<unicode hex="0323"/>
	<outline>
		<contour>
			<point x="0" y="-256" type="curve" smooth="yes"/>
			<point x="52" y="-256"/>
			<point x="92" y="-218"/>
			<point x="92" y="-168" type="curve" smooth="yes"/>
			<point x="92" y="-117"/>
			<point x="52" y="-79"/>
			<point x="0" y="-79" type="curve" smooth="yes"/>
			<point x="-52" y="-79"/>
			<point x="-92" y="-117"/>
			<point x="-92" y="-168" type="curve" smooth="yes"/>
			<point x="-92" y="-218"/>
			<point x="-52" y="-256"/>
		</contour>
	</outline>
	<anchor name="_bottom.LC" x="0" y="-50"/>
</glyph>
<glyph name="cedillacomb" format="2">
	<unicode hex="0327"/>
	<outline>
		<contour>
			<point x="-154" y="-224" type="line"/>
			<point x="-120" y="-249"/>
			<point x="-81" y="-265"/>
			<point x="-32" y="-265" type="curve" smooth="yes"/>
			<point x="64" y="-265"/>
			<point x="125" y="-211"/>
			<point x="125" y="-141" type="curve" smooth="yes"/>
			<point x="125" y="-72"/>
			<point x="45" y="-30"/>
			<point x="-42" y="-35" type="curve"/>
			<point x="1" y="-94" type="line"/>
			<point x="31" y="10" type="line"/>
			<point x="-55" y="10" type="line"/>
			<point x="-92" y="-116" type="line"/>
			<point x="-72" y="-111"/>
			<point x="-52" y="-109"/>
			<point x="-40" y="-109" type="curve" smooth="yes"/>
			<point x="-4" y="-109"/>
			<point x="20" y="-122"/>
			<point x="20" y="-144" type="curve" smooth="yes"/>
			<point x="20" y="-164"/>
			<point x="1" y="-176"/>
			<point x="-31" y="-176" type="curve" smooth="yes"/>
			<point x="-59" y="-176"/>
			<point x="-88" y="-165"/>
			<point x="-108" y="-149" type="curve"/>
		</contour>
	</outline>
	<anchor name="_bottom.LC" x="0" y="-50"/>
</glyph>
<glyph name="Ieukrain" format="2">
	<unicode hex="0404"/>
	<advance width="725"/>
	<outline>
		<contour>
			<point x="412" y="-16" type="curve" smooth="yes"/>
			<point x="523" y="-16"/>
			<point x="627" y="33"/>
			<point x="689" y="116" type="curve"/>
			<point x="584" y="232" type="line"/>
			<point x="543" y="170"/>
			<point x="481" y="133"/>
			<point x="415" y="133" type="curve" smooth="yes"/>
			<point x="297" y="133"/>
			<point x="214" y="226"/>
			<point x="214" y="358" type="curve" smooth="yes"/>
			<point x="214" y="489"/>
			<point x="297" y="582"/>
			<point x="415" y="582" type="curve" smooth="yes"/>
			<point x="481" y="582"/>
			<point x="543" y="545"/>
			<point x="584" y="483" type="curve"/>
			<point x="689" y="599" type="line"/>
			<point x="626" y="683"/>
			<point x="525" y="731"/>
			<point x="415" y="731" type="curve" smooth="yes"/>
			<point x="201" y="731"/>
			<point x="48" y="575"/>
			<point x="48" y="358" type="curve" smooth="yes"/>
			<point x="48" y="138"/>
			<point x="197" y="-16"/>
		</contour>
		<contour>
			<point x="148" y="294" type="line"/>
			<point x="525" y="294" type="line"/>
			<point x="525" y="436" type="line"/>
			<point x="148" y="436" type="line"/>
		</contour>
	</outline>
</glyph>
<glyph name="Lje" format="2">
	<unicode hex="0409"/>
	<advance width="1051"/>
	<outline>
		<contour>
			<point x="20" y="0" type="line"/>
			<point x="119" y="0" type="line" smooth="yes"/>
			<point x="234" y="0"/>
			<point x="283" y="52"/>
			<point x="299" y="195" type="curve" smooth="yes"/>
			<point x="347" y="618" type="line"/>
			<point x="292" y="573" type="line"/>
			<point x="533" y="573" type="line"/>
			<point x="487" y="618" type="line"/>
			<point x="487" y="0" type="line"/>
			<point x="774" y="0" type="line" smooth="yes"/>
			<point x="925" y="0"/>
			<point x="1026" y="95"/>
			<point x="1026" y="236" type="curve" smooth="yes"/>
			<point x="1026" y="371"/>
			<point x="925" y="462"/>
			<point x="774" y="462" type="curve" smooth="yes"/>
			<point x="563" y="462" type="line"/>
			<point x="563" y="321" type="line"/>
			<point x="774" y="321" type="line" smooth="yes"/>
			<point x="826" y="321"/>
			<point x="858" y="287"/>
			<point x="858" y="237" type="curve" smooth="yes"/>
			<point x="858" y="176"/>
			<point x="826" y="141"/>
			<point x="774" y="141" type="curve" smooth="yes"/>
			<point x="609" y="141" type="line"/>
			<point x="653" y="97" type="line"/>
			<point x="653" y="715" type="line"/>
			<point x="193" y="715" type="line"/>
			<point x="138" y="195" type="line" smooth="yes"/>
			<point x="134" y="152"/>
			<point x="124" y="142"/>
			<point x="91" y="142" type="curve" smooth="yes"/>
			<point x="20" y="142" type="line"/>
		</contour>
	</outline>
</glyph>
<glyph name="Nje" format="2">
	<unicode hex="040A"/>
	<advance width="1069"/>
	<outline>
		<contour>
			<point x="79" y="0" type="line"/>
			<point x="245" y="0" type="line"/>
			<point x="245" y="715" type="line"/>
			<point x="79" y="715" type="line"/>
		</contour>
		<contour>
			<point x="164" y="304" type="line"/>
			<point x="551" y="304" type="line"/>
			<point x="551" y="445" type="line"/>
			<point x="164" y="445" type="line"/>
		</contour>
		<contour>
			<point x="493" y="0" type="line"/>
			<point x="790" y="0" type="line" smooth="yes"/>
			<point x="943" y="0"/>
			<point x="1044" y="92"/>
			<point x="1044" y="225" type="curve" smooth="yes"/>
			<point x="1044" y="358"/>
			<point x="944" y="445"/>
			<point x="790" y="445" type="curve" smooth="yes"/>
			<point x="567" y="445" type="line"/>
			<point x="567" y="304" type="line"/>
			<point x="791" y="304" type="line" smooth="yes"/>
			<point x="843" y="304"/>
			<point x="876" y="275"/>
			<point x="876" y="225" type="curve" smooth="yes"/>
			<point x="876" y="172"/>
			<point x="843" y="141"/>
			<point x="791" y="141" type="curve" smooth="yes"/>
			<point x="612" y="141" type="line"/>
			<point x="659" y="96" type="line"/>
			<point x="659" y="715" type="line"/>
			<point x="493" y="715" type="line"/>
		</contour>
	</outline>
</glyph>
<glyph name="Dzhe" format="2">
	<unicode hex="040F"/>
	<advance width="745"/>
	<outline>
		<contour>
			<point x="79" y="0" type="line"/>
			<point x="666" y="0" type="line"/>
			<point x="666" y="715" type="line"/>
			<point x="500" y="715" type="line"/>
			<point x="500" y="117" type="line"/>
			<point x="525" y="142" type="line"/>
			<point x="220" y="142" type="line"/>
			<point x="245" y="117" type="line"/>
			<point x="245" y="715" type="line"/>
			<point x="79" y="715" type="line"/>
		</contour>
		<contour>
			<point x="295" y="-174" type="line"/>
			<point x="450" y="-174" type="line"/>
			<point x="450" y="92" type="line"/>
			<point x="295" y="92" type="line"/>
		</contour>
	</outline>
</glyph>
<glyph name="Ghe" format="2">
	<unicode hex="0413"/>
	<advance width="556"/>
	<outline>
		<contour>
			<point x="79" y="0" type="line"/>
			<point x="245" y="0" type="line"/>
			<point x="245" y="612" type="line"/>
			<point x="205" y="572" type="line"/>
			<point x="542" y="572" type="line"/>
			<point x="542" y="715" type="line"/>
			<point x="79" y="715" type="line"/>
		</contour>
	</outline>
	<anchor name="top.UC" x="316" y="750"/>
</glyph>
<glyph name="De" format="2">
	<unicode hex="0414"/>
	<advance width="789"/>
	<outline>
		<contour>
			<point x="20" y="-174" type="line"/>
			<point x="175" y="-174" type="line"/>
			<point x="175" y="25" type="line"/>
			<point x="150" y="0" type="line"/>
			<point x="624" y="0" type="line"/>
			<point x="599" y="25" type="line"/>
			<point x="599" y="-174" type="line"/>
			<point x="754" y="-174" type="line"/>
			<point x="754" y="142" type="line"/>
			<point x="234" y="142" type="line"/>
			<point x="242" y="123" type="line"/>
			<point x="282" y="161"/>
			<point x="300" y="219"/>
			<point x="309" y="290" type="curve" smooth="yes"/>
			<point x="346" y="598" type="line"/>
			<point x="318" y="573" type="line"/>
			<point x="529" y="573" type="line"/>
			<point x="504" y="598" type="line"/>
			<point x="504" y="105" type="line"/>
			<point x="668" y="105" type="line"/>
			<point x="668" y="715" type="line"/>
			<point x="201" y="715" type="line"/>
			<point x="154" y="309" type="line" smooth="yes"/>
			<point x="143" y="214"/>
			<point x="128" y="142"/>
			<point x="89" y="142" type="curve" smooth="yes"/>
			<point x="20" y="142" type="line"/>
		</contour>
	</outline>
</glyph>
<glyph name="Icyr" format="2">
	<unicode hex="0418"/>
	<advance width="762"/>
	<outline>
		<contour>
			<point x="79" y="0" type="line"/>
			<point x="252" y="0" type="line"/>
			<point x="553" y="516" type="line"/>
			<point x="517" y="521" type="line"/>
			<point x="517" y="0" type="line"/>
			<point x="683" y="0" type="line"/>
			<point x="683" y="715" type="line"/>
			<point x="511" y="715" type="line"/>
			<point x="207" y="202" type="line"/>
			<point x="245" y="181" type="line"/>
			<point x="245" y="715" type="line"/>
			<point x="79" y="715" type="line"/>
		</contour>
	</outline>
	<anchor name="top.UC" x="384" y="750"/>
</glyph>
<glyph name="El" format="2">
	<unicode hex="041B"/>
	<advance width="742"/>
	<outline>
		<contour>
			<point x="20" y="0" type="line"/>
			<point x="119" y="0" type="line" smooth="yes"/>
			<point x="235" y="0"/>
			<point x="283" y="52"/>
			<point x="299" y="195" type="curve" smooth="yes"/>
			<point x="348" y="628" type="line"/>
			<point x="295" y="573" type="line"/>
			<point x="544" y="573" type="line"/>
			<point x="497" y="628" type="line"/>
			<point x="497" y="0" type="line"/>
			<point x="663" y="0" type="line"/>
			<point x="663" y="715" type="line"/>
			<point x="193" y="715" type="line"/>
			<point x="138" y="195" type="line" smooth="yes"/>
			<point x="134" y="153"/>
			<point x="125" y="143"/>
			<point x="91" y="143" type="curve" smooth="yes"/>
			<point x="20" y="143" type="line"/>
		</contour>
	</outline>
</glyph>
<glyph name="Pe" format="2">
	<unicode hex="041F"/>
	<advance width="753"/>
	<outline>
		<contour>
			<point x="79" y="0" type="line"/>
			<point x="245" y="0" type="line"/>
			<point x="245" y="679" type="line"/>
			<point x="155" y="572" type="line"/>
			<point x="589" y="572" type="line"/>
			<point x="508" y="680" type="line"/>
			<point x="508" y="0" type="line"/>
			<point x="674" y="0" type="line"/>
			<point x="674" y="715" type="line"/>
			<point x="79" y="715" type="line"/>
		</contour>
	</outline>
</glyph>
<glyph name="Ucyr" format="2">
	<unicode hex="0423"/>
	<advance width="664"/>
	<outline>
		<contour>
			<point x="65" y="0" type="line"/>
			<point x="173" y="0" type="line" smooth="yes"/>
			<point x="281" y="0"/>
			<point x="353" y="49"/>
			<point x="401" y="155" type="curve" smooth="yes"/>
			<point x="651" y="715" type="line"/>
			<point x="484" y="715" type="line"/>
			<point x="301" y="275" type="line" smooth="yes"/>
			<point x="259" y="173"/>
			<point x="226" y="143"/>
			<point x="161" y="143" type="curve" smooth="yes"/>
			<point x="65" y="143" type="line"/>
		</contour>
		<contour>
			<point x="269" y="157" type="line"/>
			<point x="391" y="238" type="line"/>
			<point x="180" y="715" type="line"/>
			<point x="13" y="715" type="line"/>
		</contour>
	</outline>
	<anchor name="top.UC" x="330" y="750"/>
</glyph>
<glyph name="Ef" format="2">
	<unicode hex="0424"/>
	<advance width="858"/>
	<outline>
		<contour>
			<point x="429" y="69" type="curve" smooth="yes"/>
			<point x="683" y="69"/>
			<point x="814" y="168"/>
			<point x="814" y="358" type="curve" smooth="yes"/>
			<point x="814" y="547"/>
			<point x="682" y="646"/>
			<point x="429" y="646" type="curve" smooth="yes"/>
			<point x="176" y="646"/>
			<point x="44" y="547"/>
			<point x="44" y="358" type="curve" smooth="yes"/>
			<point x="44" y="168"/>
			<point x="175" y="69"/>
		</contour>
		<contour>
			<point x="429" y="206" type="curve" smooth="yes"/>
			<point x="270" y="206"/>
			<point x="206" y="249"/>
			<point x="206" y="358" type="curve" smooth="yes"/>
			<point x="206" y="465"/>
			<point x="271" y="509"/>
			<point x="429" y="509" type="curve" smooth="yes"/>
			<point x="589" y="509"/>
			<point x="652" y="466"/>
			<point x="652" y="358" type="curve" smooth="yes"/>
			<point x="652" y="249"/>
			<point x="588" y="206"/>
		</contour>
		<contour>
			<point x="346" y="-35" type="line"/>
			<point x="512" y="-35" type="line"/>
			<point x="512" y="128" type="line"/>
			<point x="507" y="172" type="line"/>
			<point x="507" y="552" type="line"/>
			<point x="512" y="591" type="line"/>
			<point x="512" y="750" type="line"/>
			<point x="346" y="750" type="line"/>
			<point x="346" y="591" type="line"/>
			<point x="351" y="552" type="line"/>
			<point x="351" y="172" type="line"/>
			<point x="346" y="128" type="line"/>
		</contour>
	</outline>
</glyph>
<glyph name="Che" format="2">
	<unicode hex="0427"/>
	<advance width="685"/>
	<outline>
		<contour>
			<point x="440" y="0" type="line"/>
			<point x="606" y="0" type="line"/>
			<point x="606" y="715" type="line"/>
			<point x="440" y="715" type="line"/>
		</contour>
		<contour>
			<point x="287" y="244" type="curve" smooth="yes"/>
			<point x="368" y="244"/>
			<point x="444" y="273"/>
			<point x="488" y="321" type="curve"/>
			<point x="451" y="420" type="line"/>
			<point x="415" y="400"/>
			<point x="366" y="388"/>
			<point x="321" y="388" type="curve" smooth="yes"/>
			<point x="243" y="388"/>
			<point x="210" y="419"/>
			<point x="210" y="490" type="curve" smooth="yes"/>
			<point x="210" y="715" type="line"/>
			<point x="44" y="715" type="line"/>
			<point x="44" y="470" type="line" smooth="yes"/>
			<point x="44" y="328"/>
			<point x="135" y="244"/>
		</contour>
	</outline>
</glyph>
<glyph name="Shcha" format="2">
	<unicode hex="0429"/>
	<advance width="1118"/>
	<outline>
		<contour>
			<point x="620" y="72" type="line"/>
			<point x="620" y="715" type="line"/>
			<point x="454" y="715" type="line"/>
			<point x="454" y="72" type="line"/>
		</contour>
		<contour>
			<point x="997" y="78" type="line"/>
			<point x="997" y="715" type="line"/>
			<point x="831" y="715" type="line"/>
			<point x="831" y="78" type="line"/>
		</contour>
		<contour>
			<point x="928" y="-174" type="line"/>
			<point x="1083" y="-174" type="line"/>
			<point x="1083" y="142" type="line"/>
			<point x="220" y="142" type="line"/>
			<point x="245" y="117" type="line"/>
			<point x="245" y="715" type="line"/>
			<point x="79" y="715" type="line"/>
			<point x="79" y="0" type="line"/>
			<point x="953" y="0" type="line"/>
			<point x="928" y="25" type="line"/>
		</contour>
	</outline>
</glyph>
<glyph name="Hard" format="2">
	<unicode hex="042A"/>
	<advance width="736"/>
	<outline>
		<contour>
			<point x="160" y="0" type="line"/>
			<point x="457" y="0" type="line" smooth="yes"/>
			<point x="609" y="0"/>
			<point x="711" y="94"/>
			<point x="711" y="234" type="curve" smooth="yes"/>
			<point x="711" y="371"/>
			<point x="610" y="462"/>
			<point x="457" y="462" type="curve" smooth="yes"/>
			<point x="257" y="462" type="line"/>
			<point x="257" y="321" type="line"/>
			<point x="458" y="321" type="line" smooth="yes"/>
			<point x="511" y="321"/>
			<point x="543" y="287"/>
			<point x="543" y="234" type="curve" smooth="yes"/>
			<point x="543" y="175"/>
			<point x="511" y="141"/>
			<point x="458" y="141" type="curve" smooth="yes"/>
			<point x="301" y="141" type="line"/>
			<point x="326" y="116" type="line"/>
			<point x="326" y="715" type="line"/>
			<point x="24" y="715" type="line"/>
			<point x="24" y="572" type="line"/>
			<point x="185" y="572" type="line"/>
			<point x="160" y="597" type="line"/>
		</contour>
	</outline>
</glyph>
<glyph name="Soft" format="2">
	<unicode hex="042C"/>
	<advance width="655"/>
	<outline>
		<contour>
			<point x="79" y="0" type="line"/>
			<point x="376" y="0" type="line" smooth="yes"/>
			<point x="528" y="0"/>
			<point x="630" y="94"/>
			<point x="630" y="234" type="curve" smooth="yes"/>
			<point x="630" y="371"/>
			<point x="529" y="462"/>
			<point x="376" y="462" type="curve" smooth="yes"/>
			<point x="154" y="462" type="line"/>
			<point x="154" y="321" type="line"/>
			<point x="377" y="321" type="line" smooth="yes"/>
			<point x="430" y="321"/>
			<point x="462" y="288"/>
			<point x="462" y="234" type="curve" smooth="yes"/>
			<point x="462" y="175"/>
			<point x="430" y="141"/>
			<point x="377" y="141" type="curve" smooth="yes"/>
			<point x="233" y="141" type="line"/>
			<point x="245" y="129" type="line"/>
			<point x="245" y="715" type="line"/>
			<point x="79" y="715" type="line"/>
		</contour>
	</outline>
</glyph>
<glyph name="Yu" format="2">
	<unicode hex="042E"/>
	<advance width="1062"/>
	<outline>
		<contour>
			<point x="79" y="0" type="line"/>
			<point x="245" y="0" type="line"/>
			<point x="245" y="715" type="line"/>
			<point x="79" y="715" type="line"/>
		</contour>
		<contour>
			<point x="672" y="-16" type="curve" smooth="yes"/>
			<point x="875" y="-16"/>
			<point x="1014" y="136"/>
			<point x="1014" y="358" type="curve" smooth="yes"/>
			<point x="1014" y="579"/>
			<point x="875" y="731"/>
			<point x="672" y="731" type="curve" smooth="yes"/>
			<point x="469" y="731"/>
			<point x="331" y="580"/>
			<point x="331" y="358" type="curve" smooth="yes"/>
			<point x="331" y="136"/>
			<point x="469" y="-16"/>
		</contour>
		<contour>
			<point x="672" y="133" type="curve" smooth="yes"/>
			<point x="572" y="133"/>
			<point x="502" y="222"/>
			<point x="502" y="358" type="curve" smooth="yes"/>
			<point x="502" y="493"/>
			<point x="572" y="582"/>
			<point x="672" y="582" type="curve" smooth="yes"/>
			<point x="773" y="582"/>
			<point x="843" y="494"/>
			<point x="843" y="358" type="curve" smooth="yes"/>
			<point x="843" y="222"/>
			<point x="773" y="133"/>
		</contour>
		<contour>
			<point x="165" y="294" type="line"/>
			<point x="442" y="294" type="line"/>
			<point x="442" y="436" type="line"/>
			<point x="165" y="436" type="line"/>
		</contour>
	</outline>
</glyph>
<glyph name="be" format="2">
	<unicode hex="0431"/>
	<advance width="609"/>
	<outline>
		<contour>
			<point x="313" y="-16" type="curve" smooth="yes"/>
			<point x="466" y="-16"/>
			<point x="569" y="90"/>
			<point x="569" y="246" type="curve" smooth="yes"/>
			<point x="569" y="382"/>
			<point x="485" y="472"/>
			<point x="354" y="472" type="curve" smooth="yes"/>
			<point x="258" y="472"/>
			<point x="191" y="422"/>
			<point x="165" y="331" type="curve"/>
			<point x="192" y="363" type="line"/>
			<point x="198" y="500"/>
			<point x="230" y="545"/>
			<point x="327" y="557" type="curve" smooth="yes"/>
			<point x="524" y="582" type="line"/>
			<point x="509" y="720" type="line"/>
			<point x="305" y="697" type="line" smooth="yes"/>
			<point x="124" y="677"/>
			<point x="45" y="568"/>
			<point x="45" y="340" type="curve" smooth="yes"/>
			<point x="45" y="115"/>
			<point x="143" y="-16"/>
		</contour>
		<contour>
			<point x="304" y="120" type="curve" smooth="yes"/>
			<point x="212" y="120"/>
			<point x="211" y="227"/>
			<point x="211" y="300" type="curve"/>
			<point x="197" y="281" type="line"/>
			<point x="205" y="254" type="line"/>
			<point x="220" y="310"/>
			<point x="255" y="339"/>
			<point x="307" y="339" type="curve" smooth="yes"/>
			<point x="368" y="339"/>
			<point x="401" y="302"/>
			<point x="401" y="232" type="curve" smooth="yes"/>
			<point x="401" y="161"/>
			<point x="367" y="120"/>
		</contour>
	</outline>
</glyph>
<glyph name="ze" format="2">
	<unicode hex="0437"/>
	<advance width="511"/>
	<outline>
		<contour>
			<point x="239" y="-16" type="curve" smooth="yes"/>
			<point x="373" y="-16"/>
			<point x="471" y="57"/>
			<point x="471" y="156" type="curve" smooth="yes"/>
			<point x="471" y="213"/>
			<point x="438" y="255"/>
			<point x="370" y="281" type="curve"/>
			<point x="370" y="261" type="line"/>
			<point x="435" y="286"/>
			<point x="461" y="319"/>
			<point x="461" y="377" type="curve" smooth="yes"/>
			<point x="461" y="462"/>
			<point x="368" y="526"/>
			<point x="244" y="526" type="curve" smooth="yes"/>
			<point x="157" y="526"/>
			<point x="86" y="497"/>
			<point x="29" y="438" type="curve"/>
			<point x="112" y="343" type="line"/>
			<point x="147" y="382"/>
			<point x="185" y="399"/>
			<point x="236" y="399" type="curve" smooth="yes"/>
			<point x="281" y="399"/>
			<point x="306" y="383"/>
			<point x="306" y="353" type="curve" smooth="yes"/>
			<point x="306" y="325"/>
			<point x="286" y="311"/>
			<point x="244" y="311" type="curve" smooth="yes"/>
			<point x="153" y="311" type="line"/>
			<point x="153" y="203" type="line"/>
			<point x="246" y="203" type="line" smooth="yes"/>
			<point x="294" y="203"/>
			<point x="315" y="190"/>
			<point x="315" y="160" type="curve" smooth="yes"/>
			<point x="315" y="127"/>
			<point x="288" y="111"/>
			<point x="235" y="111" type="curve" smooth="yes"/>
			<point x="175" y="111"/>
			<point x="133" y="129"/>
			<point x="93" y="173" type="curve"/>
			<point x="12" y="77" type="line"/>
			<point x="71" y="14"/>
			<point x="145" y="-16"/>
		</contour>
	</outline>
</glyph>
<glyph name="ka" format="2">
	<unicode hex="043A"/>
	<advance width="587"/>
	<outline>
		<contour>
			<point x="63" y="0" type="line"/>
			<point x="226" y="0" type="line"/>
			<point x="226" y="510" type="line"/>
			<point x="63" y="510" type="line"/>
		</contour>
		<contour>
			<point x="384" y="0" type="line"/>
			<point x="581" y="0" type="line"/>
			<point x="356" y="295" type="line"/>
			<point x="356" y="231" type="line"/>
			<point x="561" y="510" type="line"/>
			<point x="376" y="510" type="line"/>
			<point x="200" y="265" type="line"/>
			<point x="191" y="265" type="line"/>
		</contour>
	</outline>
	<anchor name="top.LC" x="293" y="544"/>
</glyph>
<glyph name="em" format="2">
	<unicode hex="043C"/>
	<advance width="720"/>
	<outline>
		<contour>
			<point x="63" y="0" type="line"/>
			<point x="198" y="0" type="line"/>
			<point x="198" y="314" type="line"/>
			<point x="188" y="310" type="line"/>
			<point x="309" y="57" type="line"/>
			<point x="406" y="57" type="line"/>
			<point x="530" y="317" type="line"/>
			<point x="516" y="321" type="line"/>
			<point x="516" y="0" type="line"/>
			<point x="657" y="0" type="line"/>
			<point x="657" y="510" type="line"/>
			<point x="492" y="510" type="line"/>
			<point x="340" y="185" type="line"/>
			<point x="380" y="185" type="line"/>
			<point x="224" y="510" type="line"/>
			<point x="63" y="510" type="line"/>
		</contour>
	</outline>
</glyph>
<glyph name="te" format="2">
	<unicode hex="0442"/>
	<advance width="503"/>
	<outline>
		<contour>
			<point x="20" y="379" type="line"/>
			<point x="483" y="379" type="line"/>
			<point x="483" y="510" type="line"/>
			<point x="20" y="510" type="line"/>
		</contour>
		<contour>
			<point x="170" y="0" type="line"/>
			<point x="333" y="0" type="line"/>
			<point x="333" y="449" type="line"/>
			<point x="170" y="449" type="line"/>
		</contour>
	</outline>
</glyph>
<glyph name="ef" format="2">
	<unicode hex="0444"/>
	<advance width="801"/>
	<outline>
		<contour>
			<point x="321" y="-204" type="line"/>
			<point x="480" y="-204" type="line"/>
			<point x="480" y="54" type="line"/>
			<point x="475" y="71" type="line"/>
			<point x="475" y="428" type="line"/>
			<point x="480" y="447" type="line"/>
			<point x="480" y="720" type="line"/>
			<point x="321" y="720" type="line"/>
			<point x="321" y="447" type="line"/>
			<point x="326" y="428" type="line"/>
			<point x="326" y="71" type="line"/>
			<point x="321" y="54" type="line"/>
		</contour>
		<contour>
			<point x="367" y="-16" type="curve" smooth="yes"/>
			<point x="432" y="-16" type="line" smooth="yes"/>
			<point x="634" y="-16"/>
			<point x="761" y="89"/>
			<point x="761" y="255" type="curve" smooth="yes"/>
			<point x="761" y="421"/>
			<point x="634" y="526"/>
			<point x="432" y="526" type="curve" smooth="yes"/>
			<point x="367" y="526" type="line" smooth="yes"/>
			<point x="166" y="526"/>
			<point x="40" y="421"/>
			<point x="40" y="255" type="curve" smooth="yes"/>
			<point x="40" y="89"/>
			<point x="166" y="-16"/>
		</contour>
		<contour>
			<point x="367" y="118" type="line" smooth="yes"/>
			<point x="260" y="118"/>
			<point x="197" y="168"/>
			<point x="197" y="255" type="curve" smooth="yes"/>
			<point x="197" y="342"/>
			<point x="259" y="392"/>
			<point x="367" y="392" type="curve" smooth="yes"/>
			<point x="432" y="392" type="line" smooth="yes"/>
			<point x="542" y="392"/>
			<point x="604" y="342"/>
			<point x="604" y="255" type="curve" smooth="yes"/>
			<point x="604" y="168"/>
			<point x="541" y="118"/>
			<point x="432" y="118" type="curve" smooth="yes"/>
		</contour>
	</outline>
</glyph>
<glyph name="tse" format="2">
	<unicode hex="0446"/>
	<advance width="643"/>
	<outline>
		<contour>
			<point x="376" y="60" type="line"/>
			<point x="539" y="60" type="line"/>
			<point x="539" y="510" type="line"/>
			<point x="376" y="510" type="line"/>
		</contour>
		<contour>
			<point x="63" y="0" type="line"/>
			<point x="494" y="0" type="line"/>
			<point x="469" y="25" type="line"/>
			<point x="469" y="-144" type="line"/>
			<point x="622" y="-144" type="line"/>
			<point x="622" y="131" type="line"/>
			<point x="201" y="131" type="line"/>
			<point x="226" y="106" type="line"/>
			<point x="226" y="510" type="line"/>
			<point x="63" y="510" type="line"/>
		</contour>
	</outline>
</glyph>
<glyph name="che" format="2">
	<unicode hex="0447"/>
	<advance width="579"/>
	<outline>
		<contour>
			<point x="353" y="0" type="line"/>
			<point x="516" y="0" type="line"/>
			<point x="516" y="510" type="line"/>
			<point x="353" y="510" type="line"/>
		</contour>
		<contour>
			<point x="224" y="142" type="curve" smooth="yes"/>
			<point x="281" y="142"/>
			<point x="352" y="163"/>
			<point x="382" y="189" type="curve"/>
			<point x="365" y="305" type="line"/>
			<point x="340" y="288"/>
			<point x="309" y="278"/>
			<point x="279" y="278" type="curve" smooth="yes"/>
			<point x="224" y="278"/>
			<point x="196" y="310"/>
			<point x="196" y="372" type="curve" smooth="yes"/>
			<point x="196" y="510" type="line"/>
			<point x="33" y="510" type="line"/>
			<point x="33" y="355" type="line" smooth="yes"/>
			<point x="33" y="220"/>
			<point x="103" y="142"/>
		</contour>
	</outline>
</glyph>
<glyph name="sha" format="2">
	<unicode hex="0448"/>
	<advance width="844"/>
	<outline>
		<contour>
			<point x="63" y="0" type="line"/>
			<point x="781" y="0" type="line"/>
			<point x="781" y="510" type="line"/>
			<point x="623" y="510" type="line"/>
			<point x="623" y="47" type="line"/>
			<point x="690" y="131" type="line"/>
			<point x="438" y="131" type="line"/>
			<point x="501" y="49" type="line"/>
			<point x="501" y="510" type="line"/>
			<point x="343" y="510" type="line"/>
			<point x="343" y="49" type="line"/>
			<point x="409" y="131" type="line"/>
			<point x="146" y="131" type="line"/>
			<point x="221" y="47" type="line"/>
			<point x="221" y="510" type="line"/>
			<point x="63" y="510" type="line"/>
		</contour>
	</outline>
</glyph>
<glyph name="shcha" format="2">
	<unicode hex="0449"/>
	<advance width="885"/>
	<outline>
		<contour>
			<point x="343" y="66" type="line"/>
			<point x="501" y="66" type="line"/>
			<point x="501" y="510" type="line"/>
			<point x="343" y="510" type="line"/>
		</contour>
		<contour>
			<point x="623" y="66" type="line"/>
			<point x="781" y="66" type="line"/>
			<point x="781" y="510" type="line"/>
			<point x="623" y="510" type="line"/>
		</contour>
		<contour>
			<point x="63" y="0" type="line"/>
			<point x="736" y="0" type="line"/>
			<point x="711" y="25" type="line"/>
			<point x="711" y="-144" type="line"/>
			<point x="864" y="-144" type="line"/>
			<point x="864" y="131" type="line"/>
			<point x="196" y="131" type="line"/>
			<point x="221" y="106" type="line"/>
			<point x="221" y="510" type="line"/>
			<point x="63" y="510" type="line"/>
		</contour>
	</outline>
</glyph>
<glyph name="hard" format="2">
	<unicode hex="044A"/>
	<advance width="602"/>
	<outline>
		<contour>
			<point x="138" y="0" type="line"/>
			<point x="384" y="0" type="line" smooth="yes"/>
			<point x="511" y="0"/>
			<point x="587" y="72"/>
			<point x="587" y="190" type="curve" smooth="yes"/>
			<point x="587" y="297"/>
			<point x="507" y="367"/>
			<point x="384" y="367" type="curve" smooth="yes"/>
			<point x="228" y="367" type="line"/>
			<point x="228" y="241" type="line"/>
			<point x="367" y="241" type="line" smooth="yes"/>
			<point x="407" y="241"/>
			<point x="426" y="223"/>
			<point x="426" y="184" type="curve" smooth="yes"/>
			<point x="426" y="145"/>
			<point x="407" y="126"/>
			<point x="367" y="126" type="curve" smooth="yes"/>
			<point x="263" y="126" type="line"/>
			<point x="301" y="99" type="line"/>
			<point x="301" y="510" type="line"/>
			<point x="23" y="510" type="line"/>
			<point x="23" y="379" type="line"/>
			<point x="163" y="379" type="line"/>
			<point x="138" y="404" type="line"/>
		</contour>
	</outline>
</glyph>
<glyph name="yeru" format="2">
	<unicode hex="044B"/>
	<advance width="771"/>
	<outline>
		<contour>
			<point x="63" y="0" type="line"/>
			<point x="298" y="0" type="line" smooth="yes"/>
			<point x="425" y="0"/>
			<point x="501" y="72"/>
			<point x="501" y="190" type="curve" smooth="yes"/>
			<point x="501" y="297"/>
			<point x="421" y="367"/>
			<point x="298" y="367" type="curve" smooth="yes"/>
			<point x="153" y="367" type="line"/>
			<point x="153" y="241" type="line"/>
			<point x="281" y="241" type="line" smooth="yes"/>
			<point x="321" y="241"/>
			<point x="340" y="223"/>
			<point x="340" y="184" type="curve" smooth="yes"/>
			<point x="340" y="145"/>
			<point x="321" y="126"/>
			<point x="281" y="126" type="curve" smooth="yes"/>
			<point x="188" y="126" type="line"/>
			<point x="226" y="99" type="line"/>
			<point x="226" y="510" type="line"/>
			<point x="63" y="510" type="line"/>
		</contour>
		<contour>
			<point x="545" y="0" type="line"/>
			<point x="708" y="0" type="line"/>
			<point x="708" y="510" type="line"/>
			<point x="545" y="510" type="line"/>
		</contour>
	</outline>
</glyph>
<glyph name="soft" format="2">
	<unicode hex="044C"/>
	<advance width="527"/>
	<outline>
		<contour>
			<point x="63" y="0" type="line"/>
			<point x="309" y="0" type="line" smooth="yes"/>
			<point x="436" y="0"/>
			<point x="512" y="72"/>
			<point x="512" y="190" type="curve" smooth="yes"/>
			<point x="512" y="297"/>
			<point x="432" y="367"/>
			<point x="309" y="367" type="curve" smooth="yes"/>
			<point x="153" y="367" type="line"/>
			<point x="153" y="241" type="line"/>
			<point x="292" y="241" type="line" smooth="yes"/>
			<point x="332" y="241"/>
			<point x="351" y="223"/>
			<point x="351" y="184" type="curve" smooth="yes"/>
			<point x="351" y="145"/>
			<point x="332" y="126"/>
			<point x="292" y="126" type="curve" smooth="yes"/>
			<point x="188" y="126" type="line"/>
			<point x="226" y="99" type="line"/>
			<point x="226" y="510" type="line"/>
			<point x="63" y="510" type="line"/>
		</contour>
	</outline>
</glyph>
<glyph name="ecyr" format="2">
	<unicode hex="044D"/>
	<advance width="553"/>
	<outline>
		<contour>
			<point x="158" y="203" type="line"/>
			<point x="403" y="203" type="line"/>
			<point x="403" y="311" type="line"/>
			<point x="158" y="311" type="line"/>
		</contour>
		<contour>
			<point x="239" y="-16" type="curve" smooth="yes"/>
			<point x="398" y="-16"/>
			<point x="513" y="98"/>
			<point x="513" y="255" type="curve" smooth="yes"/>
			<point x="513" y="415"/>
			<point x="401" y="526"/>
			<point x="240" y="526" type="curve" smooth="yes"/>
			<point x="151" y="526"/>
			<point x="73" y="491"/>
			<point x="19" y="427" type="curve"/>
			<point x="111" y="334" type="line"/>
			<point x="146" y="377"/>
			<point x="180" y="398"/>
			<point x="227" y="398" type="curve" smooth="yes"/>
			<point x="299" y="398"/>
			<point x="351" y="342"/>
			<point x="351" y="255" type="curve" smooth="yes"/>
			<point x="351" y="169"/>
			<point x="298" y="112"/>
			<point x="227" y="112" type="curve" smooth="yes"/>
			<point x="179" y="112"/>
			<point x="139" y="135"/>
			<point x="108" y="176" type="curve"/>
			<point x="18" y="84" type="line"/>
			<point x="72" y="21"/>
			<point x="153" y="-16"/>
		</contour>
	</outline>
</glyph>
<glyph name="ya" format="2">
	<unicode hex="044F"/>
	<advance width="563"/>
	<outline>
		<contour>
			<point x="24" y="0" type="line"/>
			<point x="195" y="0" type="line"/>
			<point x="334" y="210" type="line"/>
			<point x="175" y="210" type="line"/>
		</contour>
		<contour>
			<point x="355" y="0" type="line"/>
			<point x="500" y="0" type="line"/>
			<point x="500" y="510" type="line"/>
			<point x="234" y="510" type="line" smooth="yes"/>
			<point x="116" y="510"/>
			<point x="36" y="440"/>
			<point x="36" y="340" type="curve" smooth="yes"/>
			<point x="36" y="237"/>
			<point x="110" y="168"/>
			<point x="228" y="168" type="curve" smooth="yes"/>
			<point x="405" y="168" type="line"/>
			<point x="405" y="281" type="line"/>
			<point x="255" y="281" type="line" smooth="yes"/>
			<point x="219" y="281"/>
			<point x="195" y="298"/>
			<point x="195" y="336" type="curve" smooth="yes"/>
			<point x="195" y="372"/>
			<point x="217" y="392"/>
			<point x="253" y="392" type="curve" smooth="yes"/>
			<point x="390" y="392" type="line"/>
			<point x="355" y="430" type="line"/>
		</contour>
	</outline>
</glyph>
<glyph name="dje" format="2">
	<unicode hex="0452"/>
	<advance width="626"/>
	<outline>
		<contour>
			<point x="86" y="0" type="line"/>
			<point x="249" y="0" type="line"/>
			<point x="249" y="219" type="line" smooth="yes"/>
			<point x="249" y="299"/>
			<point x="284" y="351"/>
			<point x="338" y="351" type="curve" smooth="yes"/>
			<point x="388" y="351"/>
			<point x="411" y="300"/>
			<point x="411" y="188" type="curve" smooth="yes"/>
			<point x="411" y="53"/>
			<point x="363" y="-35"/>
			<point x="270" y="-81" type="curve"/>
			<point x="362" y="-212" type="line"/>
			<point x="501" y="-140"/>
			<point x="578" y="8"/>
			<point x="578" y="205" type="curve" smooth="yes"/>
			<point x="578" y="390"/>
			<point x="514" y="486"/>
			<point x="391" y="486" type="curve" smooth="yes"/>
			<point x="297" y="486"/>
			<point x="240" y="424"/>
			<point x="230" y="310" type="curve"/>
			<point x="249" y="310" type="line"/>
			<point x="249" y="720" type="line"/>
			<point x="86" y="720" type="line"/>
		</contour>
		<contour>
			<point x="8" y="539" type="line"/>
			<point x="385" y="539" type="line"/>
			<point x="385" y="653" type="line"/>
			<point x="8" y="653" type="line"/>
		</contour>
	</outline>
</glyph>
<glyph name="ieukrain" format="2">
	<unicode hex="0454"/>
	<advance width="553"/>
	<outline>
		<contour>
			<point x="150" y="203" type="line"/>
			<point x="395" y="203" type="line"/>
			<point x="395" y="311" type="line"/>
			<point x="150" y="311" type="line"/>
		</contour>
		<contour>
			<point x="314" y="-16" type="curve" smooth="yes"/>
			<point x="400" y="-16"/>
			<point x="481" y="21"/>
			<point x="535" y="84" type="curve"/>
			<point x="445" y="176" type="line"/>
			<point x="414" y="135"/>
			<point x="374" y="112"/>
			<point x="326" y="112" type="curve" smooth="yes"/>
			<point x="255" y="112"/>
			<point x="202" y="169"/>
			<point x="202" y="255" type="curve" smooth="yes"/>
			<point x="202" y="342"/>
			<point x="254" y="398"/>
			<point x="326" y="398" type="curve" smooth="yes"/>
			<point x="373" y="398"/>
			<point x="407" y="377"/>
			<point x="442" y="334" type="curve"/>
			<point x="534" y="427" type="line"/>
			<point x="480" y="491"/>
			<point x="402" y="526"/>
			<point x="313" y="526" type="curve" smooth="yes"/>
			<point x="152" y="526"/>
			<point x="40" y="415"/>
			<point x="40" y="255" type="curve" smooth="yes"/>
			<point x="40" y="98"/>
			<point x="155" y="-16"/>
		</contour>
	</outline>
</glyph>
<glyph name="nje" format="2">
	<unicode hex="045A"/>
	<advance width="834"/>
	<outline>
		<contour>
			<point x="380" y="0" type="line"/>
			<point x="626" y="0" type="line" smooth="yes"/>
			<point x="741" y="0"/>
			<point x="819" y="70"/>
			<point x="819" y="190" type="curve" smooth="yes"/>
			<point x="819" y="294"/>
			<point x="742" y="367"/>
			<point x="626" y="367" type="curve" smooth="yes"/>
			<point x="505" y="367" type="line"/>
			<point x="505" y="241" type="line"/>
			<point x="606" y="241" type="line" smooth="yes"/>
			<point x="643" y="241"/>
			<point x="666" y="221"/>
			<point x="666" y="185" type="curve" smooth="yes"/>
			<point x="666" y="147"/>
			<point x="643" y="126"/>
			<point x="606" y="126" type="curve" smooth="yes"/>
			<point x="528" y="126" type="line"/>
			<point x="543" y="110" type="line"/>
			<point x="543" y="510" type="line"/>
			<point x="380" y="510" type="line"/>
		</contour>
		<contour>
			<point x="63" y="0" type="line"/>
			<point x="226" y="0" type="line"/>
			<point x="226" y="510" type="line"/>
			<point x="63" y="510" type="line"/>
		</contour>
		<contour>
			<point x="169" y="214" type="line"/>
			<point x="437" y="214" type="line"/>
			<point x="437" y="345" type="line"/>
			<point x="169" y="345" type="line"/>
		</contour>
	</outline>
</glyph>
<glyph name="tshe" format="2">
	<unicode hex="045B"/>
	<advance width="628"/>
	<outline>
		<contour>
			<point x="86" y="0" type="line"/>
			<point x="249" y="0" type="line"/>
			<point x="249" y="220" type="line" smooth="yes"/>
			<point x="249" y="301"/>
			<point x="283" y="351"/>
			<point x="338" y="351" type="curve" smooth="yes"/>
			<point x="383" y="351"/>
			<point x="408" y="317"/>
			<point x="408" y="256" type="curve" smooth="yes"/>
			<point x="408" y="0" type="line"/>
			<point x="571" y="0" type="line"/>
			<point x="571" y="272" type="line" smooth="yes"/>
			<point x="571" y="407"/>
			<point x="504" y="486"/>
			<point x="390" y="486" type="curve" smooth="yes"/>
			<point x="297" y="486"/>
			<point x="239" y="422"/>
			<point x="230" y="310" type="curve"/>
			<point x="249" y="310" type="line"/>
			<point x="249" y="720" type="line"/>
			<point x="86" y="720" type="line"/>
		</contour>
		<contour>
			<point x="8" y="539" type="line"/>
			<point x="385" y="539" type="line"/>
			<point x="385" y="653" type="line"/>
			<point x="8" y="653" type="line"/>
		</contour>
	</outline>
</glyph>
<glyph name="dzhe" format="2">
	<unicode hex="045F"/>
	<advance width="602"/>
	<outline>
		<contour>
			<point x="63" y="0" type="line"/>
			<point x="539" y="0" type="line"/>
			<point x="539" y="510" type="line"/>
			<point x="376" y="510" type="line"/>
			<point x="376" y="41" type="line"/>
			<point x="450" y="131" type="line"/>
			<point x="148" y="131" type="line"/>
			<point x="226" y="41" type="line"/>
			<point x="226" y="510" type="line"/>
			<point x="63" y="510" type="line"/>
		</contour>
		<contour>
			<point x="225" y="-144" type="line"/>
			<point x="378" y="-144" type="line"/>
			<point x="378" y="112" type="line"/>
			<point x="225" y="112" type="line"/>
		</contour>
	</outline>
</glyph>
<glyph name="yat" format="2">
	<unicode hex="0463"/>
	<advance width="589"/>
	<outline>
		<contour>
			<point x="23" y="396" type="line"/>
			<point x="435" y="396" type="line"/>
			<point x="435" y="510" type="line"/>
			<point x="23" y="510" type="line"/>
		</contour>
		<contour>
			<point x="116" y="0" type="line"/>
			<point x="362" y="0" type="line" smooth="yes"/>
			<point x="487" y="0"/>
			<point x="565" y="66"/>
			<point x="565" y="181" type="curve" smooth="yes"/>
			<point x="565" y="280"/>
			<point x="488" y="350"/>
			<point x="362" y="350" type="curve" smooth="yes"/>
			<point x="206" y="350" type="line"/>
			<point x="206" y="228" type="line"/>
			<point x="343" y="228" type="line" smooth="yes"/>
			<point x="381" y="228"/>
			<point x="400" y="213"/>
			<point x="400" y="181" type="curve" smooth="yes"/>
			<point x="400" y="147"/>
			<point x="381" y="132"/>
			<point x="343" y="132" type="curve" smooth="yes"/>
			<point x="156" y="132" type="line"/>
			<point x="270" y="15" type="line"/>
			<point x="270" y="720" type="line"/>
			<point x="116" y="720" type="line"/>
		</contour>
	</outline>
</glyph>
<glyph name="fita" format="2">
	<unicode hex="0473"/>
	<advance width="627"/>
	<outline>
		<contour>
			<point x="131" y="201" type="line"/>
			<point x="494" y="201" type="line"/>
			<point x="494" y="309" type="line"/>
			<point x="131" y="309" type="line"/>
		</contour>
		<contour>
			<point x="313" y="-16" type="curve" smooth="yes"/>
			<point x="475" y="-16"/>
			<point x="587" y="95"/>
			<point x="587" y="255" type="curve" smooth="yes"/>
			<point x="587" y="415"/>
			<point x="475" y="526"/>
			<point x="313" y="526" type="curve" smooth="yes"/>
			<point x="152" y="526"/>
			<point x="40" y="415"/>
			<point x="40" y="255" type="curve" smooth="yes"/>
			<point x="40" y="95"/>
			<point x="152" y="-16"/>
		</contour>
		<contour>
			<point x="313" y="106" type="curve" smooth="yes"/>
			<point x="239" y="106"/>
			<point x="186" y="160"/>
			<point x="186" y="255" type="curve" smooth="yes"/>
			<point x="186" y="350"/>
			<point x="239" y="404"/>
			<point x="313" y="404" type="curve" smooth="yes"/>
			<point x="388" y="404"/>
			<point x="441" y="349"/>
			<point x="441" y="255" type="curve" smooth="yes"/>
			<point x="441" y="161"/>
			<point x="388" y="106"/>
		</contour>
	</outline>
</glyph>
<glyph name="Izhitsa" format="2">
	<unicode hex="0474"/>
	<advance width="777"/>
	<outline>
		<contour>
			<point x="295" y="0" type="line"/>
			<point x="459" y="0" type="line"/>
			<point x="650" y="535" type="line" smooth="yes"/>
			<point x="661" y="565"/>
			<point x="670" y="572"/>
			<point x="699" y="572" type="curve" smooth="yes"/>
			<point x="767" y="572" type="line"/>
			<point x="767" y="715" type="line"/>
			<point x="669" y="715" type="line" smooth="yes"/>
			<point x="573" y="715"/>
			<point x="536" y="693"/>
			<point x="507" y="600" type="curve" smooth="yes"/>
			<point x="363" y="143" type="line"/>
			<point x="401" y="143" type="line"/>
			<point x="208" y="715" type="line"/>
			<point x="28" y="715" type="line"/>
		</contour>
	</outline>
</glyph>
<glyph name="izhitsa" format="2">
	<unicode hex="0475"/>
	<advance width="604"/>
	<outline>
		<contour>
			<point x="223" y="0" type="line"/>
			<point x="380" y="0" type="line"/>
			<point x="504" y="337" type="line" smooth="yes"/>
			<point x="515" y="366"/>
			<point x="526" y="375"/>
			<point x="552" y="375" type="curve" smooth="yes"/>
			<point x="590" y="375" type="line"/>
			<point x="590" y="510" type="line"/>
			<point x="522" y="510" type="line" smooth="yes"/>
			<point x="439" y="510"/>
			<point x="405" y="485"/>
			<point x="381" y="407" type="curve" smooth="yes"/>
			<point x="293" y="122" type="line"/>
			<point x="317" y="122" type="line"/>
			<point x="187" y="510" type="line"/>
			<point x="20" y="510" type="line"/>
		</contour>
	</outline>
</glyph>
<glyph name="Gheup" format="2">
	<unicode hex="0490"/>
	<advance width="566"/>
	<outline>
		<contour>
			<point x="79" y="0" type="line"/>
			<point x="245" y="0" type="line"/>
			<point x="245" y="680" type="line"/>
			<point x="155" y="572" type="line"/>
			<point x="542" y="572" type="line"/>
			<point x="542" y="879" type="line"/>
			<point x="387" y="879" type="line"/>
			<point x="387" y="638" type="line"/>
			<point x="477" y="715" type="line"/>
			<point x="79" y="715" type="line"/>
		</contour>
	</outline>
</glyph>
<glyph name="gheup" format="2">
	<unicode hex="0491"/>
	<advance width="454"/>
	<outline>
		<contour>
			<point x="63" y="0" type="line"/>
			<point x="226" y="0" type="line"/>
			<point x="226" y="481" type="line"/>
			<point x="105" y="379" type="line"/>
			<point x="434" y="379" type="line"/>
			<point x="434" y="644" type="line"/>
			<point x="281" y="644" type="line"/>
			<point x="281" y="477" type="line"/>
			<point x="312" y="510" type="line"/>
			<point x="63" y="510" type="line"/>
		</contour>
	</outline>
</glyph>
<glyph name="quoteleft" format="2">
	<unicode hex="2018"/>
	<advance width="273"/>
	<outline>
		<contour>
			<point x="139" y="751" type="line"/>
			<point x="78" y="678"/>
			<point x="41" y="612"/>
			<point x="41" y="544" type="curve" smooth="yes"/>
			<point x="41" y="475"/>
			<point x="81" y="433"/>
			<point x="137" y="433" type="curve" smooth="yes"/>
			<point x="190" y="433"/>
			<point x="228" y="473"/>
			<point x="228" y="527" type="curve" smooth="yes"/>
			<point x="228" y="580"/>
			<point x="188" y="620"/>
			<point x="133" y="620" type="curve"/>
			<point x="147" y="560" type="line"/>
			<point x="140" y="618"/>
			<point x="183" y="691"/>
			<point x="232" y="751" type="curve"/>
		</contour>
	</outline>
</glyph>
<glyph name="guilsinglright" format="2">
	<unicode hex="203A"/>
	<advance width="365"/>
	<outline>
		<contour>
			<point x="204" y="478" type="line"/>
			<point x="20" y="478" type="line"/>
			<point x="170" y="255" type="line"/>
			<point x="20" y="32" type="line"/>
			<point x="204" y="32" type="line"/>
			<point x="346" y="255" type="line"/>
		</contour>
	</outline>
</glyph>
<glyph name="dong" format="2">
	<unicode hex="20AB"/>
	<advance width="625"/>
	<outline>
		<contour>
			<point x="255" y="168" type="curve" smooth="yes"/>
			<point x="340" y="168"/>
			<point x="392" y="226"/>
			<point x="394" y="323" type="curve"/>
			<point x="366" y="335" type="line"/>
			<point x="361" y="301"/>
			<point x="333" y="278"/>
			<point x="297" y="278" type="curve" smooth="yes"/>
			<point x="253" y="278"/>
			<point x="223" y="312"/>
			<point x="223" y="363" type="curve" smooth="yes"/>
			<point x="223" y="414"/>
			<point x="252" y="448"/>
			<point x="295" y="448" type="curve" smooth="yes"/>
			<point x="337" y="448"/>
			<point x="363" y="414"/>
			<point x="363" y="361" type="curve" smooth="yes"/>
			<point x="363" y="267" type="line"/>
			<point x="364" y="257" type="line"/>
			<point x="364" y="180" type="line"/>
			<point x="502" y="180" type="line"/>
			<point x="502" y="715" type="line"/>
			<point x="363" y="715" type="line"/>
			<point x="363" y="407" type="line"/>
			<point x="397" y="407" type="line"/>
			<point x="389" y="497"/>
			<point x="338" y="549"/>
			<point x="258" y="549" type="curve" smooth="yes"/>
			<point x="157" y="549"/>
			<point x="80" y="467"/>
			<point x="80" y="358" type="curve" smooth="yes"/>
			<point x="80" y="250"/>
			<point x="155" y="168"/>
		</contour>
		<contour>
			<point x="95" y="0" type="line"/>
			<point x="502" y="0" type="line"/>
			<point x="502" y="116" type="line"/>
			<point x="95" y="116" type="line"/>
		</contour>
		<contour>
			<point x="266" y="584" type="line"/>
			<point x="560" y="584" type="line"/>
			<point x="560" y="670" type="line"/>
			<point x="266" y="670" type="line"/>
		</contour>
	</outline>
</glyph>
<glyph name="Euro" format="2">
	<unicode hex="20AC"/>
	<advance width="632"/>
	<outline>
		<contour>
			<point x="507" y="192" type="line"/>
			<point x="478" y="148"/>
			<point x="441" y="123"/>
			<point x="386" y="123" type="curve" smooth="yes"/>
			<point x="296" y="123"/>
			<point x="239" y="211"/>
			<point x="239" y="358" type="curve" smooth="yes"/>
			<point x="239" y="504"/>
			<point x="296" y="592"/>
			<point x="386" y="592" type="curve" smooth="yes"/>
			<point x="437" y="592"/>
			<point x="477" y="567"/>
			<point x="506" y="522" type="curve"/>
			<point x="607" y="628" type="line"/>
			<point x="559" y="689"/>
			<point x="481" y="731"/>
			<point x="386" y="731" type="curve" smooth="yes"/>
			<point x="198" y="731"/>
			<point x="79" y="583"/>
			<point x="79" y="358" type="curve" smooth="yes"/>
			<point x="79" y="132"/>
			<point x="193" y="-16"/>
			<point x="382" y="-16" type="curve" smooth="yes"/>
			<point x="478" y="-16"/>
			<point x="560" y="26"/>
			<point x="607" y="87" type="curve"/>
		</contour>
		<contour>
			<point x="411" y="228" type="line"/>
			<point x="431" y="336" type="line"/>
			<point x="24" y="336" type="line"/>
			<point x="24" y="228" type="line"/>
		</contour>
		<contour>
			<point x="437" y="380" type="line"/>
			<point x="457" y="488" type="line"/>
			<point x="24" y="488" type="line"/>
			<point x="24" y="380" type="line"/>
		</contour>
	</outline>
</glyph>
<glyph name="rupeeindian" format="2">
	<unicode hex="20B9"/>
	<advance width="632"/>
	<outline>
		<contour>
			<point x="55" y="607" type="line"/>
			<point x="247" y="607" type="line" smooth="yes"/>
			<point x="322" y="607"/>
			<point x="367" y="565"/>
			<point x="367" y="495" type="curve" smooth="yes"/>
			<point x="367" y="425"/>
			<point x="322" y="383"/>
			<point x="247" y="383" type="curve" smooth="yes"/>
			<point x="56" y="383" type="line"/>
			<point x="56" y="275" type="line"/>
			<point x="247" y="275" type="line" smooth="yes"/>
			<point x="410" y="275"/>
			<point x="506" y="364"/>
			<point x="506" y="495" type="curve" smooth="yes"/>
			<point x="506" y="614"/>
			<point x="410" y="695"/>
			<point x="247" y="695" type="curve" smooth="yes"/>
			<point x="55" y="695" type="line"/>
		</contour>
		<contour>
			<point x="579" y="0" type="line"/>
			<point x="248" y="296" type="line"/>
			<point x="56" y="275" type="line"/>
			<point x="344" y="0" type="line"/>
		</contour>
		<contour>
			<point x="548" y="439" type="line"/>
			<point x="568" y="547" type="line"/>
			<point x="55" y="547" type="line"/>
			<point x="55" y="439" type="line"/>
		</contour>
		<contour>
			<point x="578" y="607" type="line"/>
			<point x="597" y="715" type="line"/>
			<point x="55" y="715" type="line"/>
			<point x="55" y="607" type="line"/>
		</contour>
	</outline>
</glyph>
<glyph name="numero" format="2">
	<unicode hex="2116"/>
	<advance width="1206"/>
	<outline>
		<contour>
			<point x="798" y="182" type="line"/>
			<point x="1153" y="182" type="line"/>
			<point x="1153" y="295" type="line"/>
			<point x="798" y="295" type="line"/>
		</contour>
		<contour>
			<point x="975" y="331" type="curve" smooth="yes"/>
			<point x="1091" y="331"/>
			<point x="1170" y="411"/>
			<point x="1170" y="523" type="curve" smooth="yes"/>
			<point x="1170" y="636"/>
			<point x="1091" y="715"/>
			<point x="975" y="715" type="curve" smooth="yes"/>
			<point x="859" y="715"/>
			<point x="780" y="636"/>
			<point x="780" y="523" type="curve" smooth="yes"/>
			<point x="780" y="411"/>
			<point x="859" y="331"/>
		</contour>
		<contour>
			<point x="975" y="446" type="curve" smooth="yes"/>
			<point x="941" y="446"/>
			<point x="917" y="478"/>
			<point x="917" y="523" type="curve" smooth="yes"/>
			<point x="917" y="569"/>
			<point x="941" y="600"/>
			<point x="975" y="600" type="curve" smooth="yes"/>
			<point x="1009" y="600"/>
			<point x="1033" y="569"/>
			<point x="1033" y="523" type="curve" smooth="yes"/>
			<point x="1033" y="478"/>
			<point x="1009" y="446"/>
		</contour>
		<contour>
			<point x="79" y="0" type="line"/>
			<point x="242" y="0" type="line"/>
			<point x="242" y="560" type="line"/>
			<point x="169" y="560" type="line"/>
			<point x="520" y="0" type="line"/>
			<point x="692" y="0" type="line"/>
			<point x="692" y="715" type="line"/>
			<point x="529" y="715" type="line"/>
			<point x="529" y="156" type="line"/>
			<point x="602" y="156" type="line"/>
			<point x="251" y="715" type="line"/>
			<point x="79" y="715" type="line"/>
		</contour>
	</outline>
</glyph>
<glyph name="minus" format="2">
	<unicode hex="2212"/>
	<advance width="632"/>
	<outline>
		<contour>
			<point x="538" y="292" type="line"/>
			<point x="538" y="424" type="line"/>
			<point x="94" y="424" type="line"/>
			<point x="94" y="292" type="line"/>
		</contour>
	</outline>
</glyph>
<glyph name="Ef.loclBGR" format="2">
	<advance width="858"/>
	<outline>
		<contour>
			<point x="429" y="49" type="curve" smooth="yes"/>
			<point x="683" y="49"/>
			<point x="814" y="154"/>
			<point x="814" y="358" type="curve" smooth="yes"/>
			<point x="814" y="561"/>
			<point x="682" y="666"/>
			<point x="429" y="666" type="curve" smooth="yes"/>
			<point x="176" y="666"/>
			<point x="44" y="561"/>
			<point x="44" y="358" type="curve" smooth="yes"/>
			<point x="44" y="154"/>
			<point x="175" y="49"/>
		</contour>
		<contour>
			<point x="429" y="186" type="curve" smooth="yes"/>
			<point x="270" y="186"/>
			<point x="206" y="235"/>
			<point x="206" y="358" type="curve" smooth="yes"/>
			<point x="206" y="479"/>
			<point x="271" y="529"/>
			<point x="429" y="529" type="curve" smooth="yes"/>
			<point x="589" y="529"/>
			<point x="652" y="480"/>
			<point x="652" y="358" type="curve" smooth="yes"/>
			<point x="652" y="235"/>
			<point x="588" y="186"/>
		</contour>
		<contour>
			<point x="346" y="-55" type="line"/>
			<point x="512" y="-55" type="line"/>
			<point x="512" y="108" type="line"/>
			<point x="507" y="152" type="line"/>
			<point x="507" y="572" type="line"/>
			<point x="512" y="611" type="line"/>
			<point x="512" y="770" type="line"/>
			<point x="346" y="770" type="line"/>
			<point x="346" y="611" type="line"/>
			<point x="351" y="572" type="line"/>
			<point x="351" y="152" type="line"/>
			<point x="346" y="108" type="line"/>
		</contour>
	</outline>
</glyph>
<glyph name="El.loclBGR" format="2">
	<advance width="761"/>
	<outline>
		<contour>
			<point x="28" y="0" type="line"/>
			<point x="201" y="0" type="line"/>
			<point x="398" y="591" type="line"/>
			<point x="356" y="591" type="line"/>
			<point x="553" y="0" type="line"/>
			<point x="733" y="0" type="line"/>
			<point x="473" y="715" type="line"/>
			<point x="287" y="715" type="line"/>
		</contour>
	</outline>
</glyph>
<glyph name="acutecomb.asc" format="2">
	<outline>
		<contour>
			<point x="220" y="731" type="line"/>
			<point x="37" y="731" type="line"/>
			<point x="-77" y="587" type="line"/>
			<point x="65" y="587" type="line"/>
		</contour>
	</outline>
	<anchor name="_top.LC" x="0" y="544"/>
</glyph>
<glyph name="be.loclMKDSRB" format="2">
	<advance width="626"/>
	<outline>
		<contour>
			<point x="314" y="-16" type="curve" smooth="yes"/>
			<point x="479" y="-16"/>
			<point x="581" y="81"/>
			<point x="581" y="237" type="curve" smooth="yes"/>
			<point x="581" y="341"/>
			<point x="528" y="416"/>
			<point x="419" y="470" type="curve" smooth="yes"/>
			<point x="292" y="533" type="line" smooth="yes"/>
			<point x="273" y="542"/>
			<point x="268" y="547"/>
			<point x="268" y="556" type="curve" smooth="yes"/>
			<point x="268" y="567"/>
			<point x="274" y="571"/>
			<point x="291" y="572" type="curve" smooth="yes"/>
			<point x="533" y="587" type="line"/>
			<point x="525" y="720" type="line"/>
			<point x="272" y="706" type="line" smooth="yes"/>
			<point x="153" y="699"/>
			<point x="98" y="655"/>
			<point x="98" y="565" type="curve" smooth="yes"/>
			<point x="98" y="500"/>
			<point x="138" y="454"/>
			<point x="237" y="404" type="curve" smooth="yes"/>
			<point x="334" y="355" type="line" smooth="yes"/>
			<point x="387" y="329"/>
			<point x="415" y="286"/>
			<point x="415" y="233" type="curve" smooth="yes"/>
			<point x="415" y="165"/>
			<point x="376" y="120"/>
			<point x="317" y="120" type="curve" smooth="yes"/>
			<point x="254" y="120"/>
			<point x="213" y="162"/>
			<point x="213" y="227" type="curve" smooth="yes"/>
			<point x="213" y="294"/>
			<point x="264" y="355"/>
			<point x="341" y="381" type="curve"/>
			<point x="274" y="458" type="line"/>
			<point x="127" y="430"/>
			<point x="45" y="344"/>
			<point x="45" y="216" type="curve" smooth="yes"/>
			<point x="45" y="72"/>
			<point x="148" y="-16"/>
		</contour>
	</outline>
</glyph>
<glyph name="breveacutecomb" format="2">
	<outline>
		<contour>
			<point x="0" y="587" type="curve" smooth="yes"/>
			<point x="89" y="587"/>
			<point x="163" y="648"/>
			<point x="173" y="757" type="curve"/>
			<point x="54" y="757" type="line"/>
			<point x="47" y="710"/>
			<point x="26" y="694"/>
			<point x="0" y="694" type="curve" smooth="yes"/>
			<point x="-26" y="694"/>
			<point x="-47" y="710"/>
			<point x="-54" y="757" type="curve"/>
			<point x="-173" y="757" type="line"/>
			<point x="-163" y="648"/>
			<point x="-89" y="587"/>
		</contour>
		<contour>
			<point x="-51" y="772" type="line"/>
			<point x="54" y="772" type="line"/>
			<point x="192" y="925" type="line"/>
			<point x="39" y="925" type="line"/>
		</contour>
	</outline>
	<anchor name="_top.LC" x="0" y="544"/>
</glyph>
<glyph name="brevecomb.cyrl.cap" format="2">
	<outline>
		<contour>
			<point x="0" y="588" type="curve" smooth="yes"/>
			<point x="108" y="588"/>
			<point x="184" y="637"/>
			<point x="198" y="748" type="curve"/>
			<point x="70" y="748" type="line"/>
			<point x="65" y="695"/>
			<point x="42" y="677"/>
			<point x="0" y="677" type="curve" smooth="yes"/>
			<point x="-41" y="677"/>
			<point x="-65" y="695"/>
			<point x="-71" y="748" type="curve"/>
			<point x="-198" y="748" type="line"/>
			<point x="-184" y="637"/>
			<point x="-108" y="588"/>
		</contour>
	</outline>
	<anchor name="_top.UC" x="0" y="544"/>
</glyph>
<glyph name="brevehookabovecomb.cap" format="2">
	<outline>
		<contour>
			<point x="0" y="795" type="curve" smooth="yes"/>
			<point x="99" y="795"/>
			<point x="173" y="855"/>
			<point x="183" y="955" type="curve"/>
			<point x="58" y="955" type="line"/>
			<point x="52" y="920"/>
			<point x="29" y="897"/>
			<point x="0" y="897" type="curve" smooth="yes"/>
			<point x="-28" y="897"/>
			<point x="-52" y="920"/>
			<point x="-58" y="955" type="curve"/>
			<point x="-183" y="955" type="line"/>
			<point x="-173" y="855"/>
			<point x="-99" y="795"/>
		</contour>
		<contour>
			<point x="-17" y="949" type="line"/>
			<point x="60" y="979"/>
			<point x="102" y="1025"/>
			<point x="102" y="1078" type="curve" smooth="yes"/>
			<point x="102" y="1134"/>
			<point x="56" y="1175"/>
			<point x="-10" y="1175" type="curve" smooth="yes"/>
			<point x="-51" y="1175"/>
			<point x="-86" y="1159"/>
			<point x="-117" y="1127" type="curve"/>
			<point x="-73" y="1069" type="line"/>
			<point x="-56" y="1083"/>
			<point x="-42" y="1090"/>
			<point x="-26" y="1090" type="curve" smooth="yes"/>
			<point x="-7" y="1090"/>
			<point x="3" y="1080"/>
			<point x="3" y="1064" type="curve" smooth="yes"/>
			<point x="3" y="1044"/>
			<point x="-13" y="1029"/>
			<point x="-49" y="1011" type="curve"/>
		</contour>
	</outline>
	<anchor name="_top.UC" x="0" y="750"/>
</glyph>
<glyph name="brevetildecomb.cap" format="2">
	<outline>
		<contour>
			<point x="0" y="795" type="curve" smooth="yes"/>
			<point x="99" y="795"/>
			<point x="173" y="855"/>
			<point x="183" y="955" type="curve"/>
			<point x="58" y="955" type="line"/>
			<point x="52" y="920"/>
			<point x="28" y="897"/>
			<point x="-1" y="897" type="curve" smooth="yes"/>
			<point x="-29" y="897"/>
			<point x="-52" y="920"/>
			<point x="-58" y="955" type="curve"/>
			<point x="-183" y="955" type="line"/>
			<point x="-173" y="855"/>
			<point x="-99" y="795"/>
		</contour>
		<contour>
			<point x="-99" y="982" type="line"/>
			<point x="-93" y="1025"/>
			<point x="-82" y="1046"/>
			<point x="-66" y="1046" type="curve" smooth="yes"/>
			<point x="-59" y="1046"/>
			<point x="-48" y="1041"/>
			<point x="-32" y="1028" type="curve" smooth="yes"/>
			<point x="11" y="997"/>
			<point x="42" y="984"/>
			<point x="75" y="984" type="curve" smooth="yes"/>
			<point x="137" y="984"/>
			<point x="179" y="1028"/>
			<point x="190" y="1106" type="curve"/>
			<point x="99" y="1143" type="line"/>
			<point x="93" y="1100"/>
			<point x="83" y="1079"/>
			<point x="68" y="1079" type="curve" smooth="yes"/>
			<point x="59" y="1079"/>
			<point x="41" y="1088"/>
			<point x="18" y="1104" type="curve" smooth="yes"/>
			<point x="-23" y="1132"/>
			<point x="-47" y="1141"/>
			<point x="-75" y="1141" type="curve" smooth="yes"/>
			<point x="-138" y="1141"/>
			<point x="-179" y="1097"/>
			<point x="-190" y="1019" type="curve"/>
		</contour>
	</outline>
	<anchor name="_top.UC" x="0" y="750"/>
</glyph>
<glyph name="brevetildecomb" format="2">
	<outline>
		<contour>
			<point x="0" y="587" type="curve" smooth="yes"/>
			<point x="89" y="587"/>
			<point x="163" y="648"/>
			<point x="173" y="757" type="curve"/>
			<point x="54" y="757" type="line"/>
			<point x="47" y="710"/>
			<point x="26" y="694"/>
			<point x="0" y="694" type="curve" smooth="yes"/>
			<point x="-26" y="694"/>
			<point x="-47" y="710"/>
			<point x="-54" y="757" type="curve"/>
			<point x="-173" y="757" type="line"/>
			<point x="-163" y="648"/>
			<point x="-89" y="587"/>
		</contour>
		<contour>
			<point x="-95" y="791" type="line"/>
			<point x="-86" y="831"/>
			<point x="-77" y="847"/>
			<point x="-63" y="847" type="curve" smooth="yes"/>
			<point x="-54" y="847"/>
			<point x="-41" y="841"/>
			<point x="1" y="816" type="curve" smooth="yes"/>
			<point x="28" y="801"/>
			<point x="51" y="794"/>
			<point x="72" y="794" type="curve" smooth="yes"/>
			<point x="126" y="794"/>
			<point x="171" y="840"/>
			<point x="185" y="911" type="curve"/>
			<point x="95" y="951" type="line"/>
			<point x="87" y="912"/>
			<point x="76" y="895"/>
			<point x="59" y="895" type="curve" smooth="yes"/>
			<point x="53" y="895"/>
			<point x="49" y="897"/>
			<point x="33" y="907" type="curve" smooth="yes"/>
			<point x="-22" y="940"/>
			<point x="-41" y="948"/>
			<point x="-65" y="948" type="curve" smooth="yes"/>
			<point x="-125" y="948"/>
			<point x="-171" y="902"/>
			<point x="-185" y="830" type="curve"/>
		</contour>
	</outline>
	<anchor name="_top.LC" x="0" y="544"/>
</glyph>
<glyph name="che.loclBGR" format="2">
	<advance width="578"/>
	<outline>
		<contour>
			<point x="352" y="-1" type="line"/>
			<point x="515" y="-1" type="line"/>
			<point x="515" y="510" type="line"/>
			<point x="352" y="510" type="line"/>
		</contour>
		<contour>
			<point x="213" y="143" type="curve" smooth="yes"/>
			<point x="325" y="143"/>
			<point x="394" y="224"/>
			<point x="394" y="348" type="curve"/>
			<point x="356" y="367" type="line"/>
			<point x="348" y="315"/>
			<point x="309" y="279"/>
			<point x="263" y="279" type="curve" smooth="yes"/>
			<point x="223" y="279"/>
			<point x="196" y="302"/>
			<point x="196" y="364" type="curve" smooth="yes"/>
			<point x="196" y="510" type="line"/>
			<point x="33" y="510" type="line"/>
			<point x="33" y="347" type="line" smooth="yes"/>
			<point x="33" y="215"/>
			<point x="103" y="143"/>
		</contour>
	</outline>
</glyph>
<glyph name="circumflexacutecomb.cap" format="2">
	<outline>
		<contour>
			<point x="152" y="882" type="line"/>
			<point x="257" y="882" type="line"/>
			<point x="403" y="1030" type="line"/>
			<point x="250" y="1030" type="line"/>
		</contour>
		<contour>
			<point x="-210" y="799" type="line"/>
			<point x="-62" y="799" type="line"/>
			<point x="8" y="868" type="line"/>
			<point x="-8" y="868" type="line"/>
			<point x="63" y="799" type="line"/>
			<point x="212" y="799" type="line"/>
			<point x="93" y="936" type="line"/>
			<point x="-91" y="936" type="line"/>
		</contour>
	</outline>
	<anchor name="_top.UC" x="0" y="750"/>
</glyph>
<glyph name="circumflexacutecomb" format="2">
	<outline>
		<contour>
			<point x="148" y="678" type="line"/>
			<point x="253" y="678" type="line"/>
			<point x="391" y="831" type="line"/>
			<point x="238" y="831" type="line"/>
		</contour>
		<contour>
			<point x="-198" y="587" type="line"/>
			<point x="-54" y="587" type="line"/>
			<point x="7" y="655" type="line"/>
			<point x="-7" y="654" type="line"/>
			<point x="55" y="587" type="line"/>
			<point x="202" y="587" type="line"/>
			<point x="86" y="744" type="line"/>
			<point x="-83" y="744" type="line"/>
		</contour>
	</outline>
	<anchor name="_top.LC" x="0" y="544"/>
</glyph>
<glyph name="circumflexgravecomb" format="2">
	<outline>
		<contour>
			<point x="-197" y="587" type="line"/>
			<point x="-53" y="587" type="line"/>
			<point x="8" y="655" type="line"/>
			<point x="-7" y="654" type="line"/>
			<point x="56" y="587" type="line"/>
			<point x="203" y="587" type="line"/>
			<point x="87" y="744" type="line"/>
			<point x="-82" y="744" type="line"/>
		</contour>
		<contour>
			<point x="199" y="678" type="line"/>
			<point x="306" y="678" type="line"/>
			<point x="216" y="831" type="line"/>
			<point x="61" y="831" type="line"/>
		</contour>
	</outline>
	<anchor name="_top.LC" x="0" y="544"/>
</glyph>
<glyph name="circumflexhookabovecomb.cap" format="2">
	<outline>
		<contour>
			<point x="-210" y="799" type="line"/>
			<point x="-62" y="799" type="line"/>
			<point x="8" y="868" type="line"/>
			<point x="-8" y="868" type="line"/>
			<point x="63" y="799" type="line"/>
			<point x="212" y="799" type="line"/>
			<point x="93" y="936" type="line"/>
			<point x="-91" y="936" type="line"/>
		</contour>
		<contour>
			<point x="194" y="866" type="line"/>
			<point x="272" y="896"/>
			<point x="313" y="942"/>
			<point x="313" y="995" type="curve" smooth="yes"/>
			<point x="313" y="1051"/>
			<point x="267" y="1092"/>
			<point x="201" y="1092" type="curve" smooth="yes"/>
			<point x="160" y="1092"/>
			<point x="125" y="1076"/>
			<point x="94" y="1044" type="curve"/>
			<point x="138" y="986" type="line"/>
			<point x="155" y="1000"/>
			<point x="169" y="1007"/>
			<point x="185" y="1007" type="curve" smooth="yes"/>
			<point x="205" y="1007"/>
			<point x="214" y="997"/>
			<point x="214" y="981" type="curve" smooth="yes"/>
			<point x="214" y="961"/>
			<point x="198" y="946"/>
			<point x="162" y="928" type="curve"/>
		</contour>
	</outline>
	<anchor name="_top.UC" x="0" y="750"/>
</glyph>
<glyph name="circumflexhookabovecomb" format="2">
	<outline>
		<contour>
			<point x="-198" y="587" type="line"/>
			<point x="-54" y="587" type="line"/>
			<point x="7" y="655" type="line"/>
			<point x="-7" y="654" type="line"/>
			<point x="55" y="587" type="line"/>
			<point x="202" y="587" type="line"/>
			<point x="86" y="744" type="line"/>
			<point x="-83" y="744" type="line"/>
		</contour>
		<contour>
			<point x="186" y="665" type="line"/>
			<point x="266" y="696"/>
			<point x="308" y="742"/>
			<point x="308" y="797" type="curve" smooth="yes"/>
			<point x="308" y="855"/>
			<point x="260" y="897"/>
			<point x="193" y="897" type="curve" smooth="yes"/>
			<point x="151" y="897"/>
			<point x="113" y="881"/>
			<point x="83" y="848" type="curve"/>
			<point x="127" y="789" type="line"/>
			<point x="147" y="804"/>
			<point x="161" y="811"/>
			<point x="177" y="811" type="curve" smooth="yes"/>
			<point x="196" y="811"/>
			<point x="207" y="800"/>
			<point x="207" y="783" type="curve" smooth="yes"/>
			<point x="207" y="764"/>
			<point x="193" y="748"/>
			<point x="153" y="728" type="curve"/>
		</contour>
	</outline>
	<anchor name="_top.LC" x="0" y="544"/>
</glyph>
<glyph name="circumflextildecomb.cap" format="2">
	<outline>
		<contour>
			<point x="-210" y="799" type="line"/>
			<point x="-62" y="799" type="line"/>
			<point x="8" y="868" type="line"/>
			<point x="-8" y="868" type="line"/>
			<point x="63" y="799" type="line"/>
			<point x="212" y="799" type="line"/>
			<point x="93" y="936" type="line"/>
			<point x="-91" y="936" type="line"/>
		</contour>
		<contour>
			<point x="-98" y="956" type="line"/>
			<point x="-92" y="1000"/>
			<point x="-81" y="1020"/>
			<point x="-65" y="1020" type="curve" smooth="yes"/>
			<point x="-58" y="1020"/>
			<point x="-48" y="1014"/>
			<point x="-32" y="1002" type="curve" smooth="yes"/>
			<point x="9" y="971"/>
			<point x="42" y="958"/>
			<point x="75" y="958" type="curve" smooth="yes"/>
			<point x="138" y="958"/>
			<point x="180" y="1002"/>
			<point x="191" y="1080" type="curve"/>
			<point x="100" y="1117" type="line"/>
			<point x="94" y="1074"/>
			<point x="84" y="1053"/>
			<point x="69" y="1053" type="curve" smooth="yes"/>
			<point x="60" y="1053"/>
			<point x="43" y="1061"/>
			<point x="19" y="1078" type="curve" smooth="yes"/>
			<point x="-20" y="1105"/>
			<point x="-46" y="1115"/>
			<point x="-74" y="1115" type="curve" smooth="yes"/>
			<point x="-137" y="1115"/>
			<point x="-178" y="1071"/>
			<point x="-189" y="993" type="curve"/>
		</contour>
	</outline>
	<anchor name="_top.UC" x="0" y="750"/>
</glyph>
<glyph name="circumflextildecomb" format="2">
	<outline>
		<contour>
			<point x="-198" y="587" type="line"/>
			<point x="-54" y="587" type="line"/>
			<point x="7" y="655" type="line"/>
			<point x="-7" y="654" type="line"/>
			<point x="55" y="587" type="line"/>
			<point x="202" y="587" type="line"/>
			<point x="86" y="744" type="line"/>
			<point x="-83" y="744" type="line"/>
		</contour>
		<contour>
			<point x="-93" y="781" type="line"/>
			<point x="-85" y="819"/>
			<point x="-75" y="837"/>
			<point x="-61" y="837" type="curve" smooth="yes"/>
			<point x="-52" y="837"/>
			<point x="-47" y="835"/>
			<point x="7" y="804" type="curve" smooth="yes"/>
			<point x="32" y="790"/>
			<point x="52" y="784"/>
			<point x="72" y="784" type="curve" smooth="yes"/>
			<point x="128" y="784"/>
			<point x="172" y="829"/>
			<point x="187" y="901" type="curve"/>
			<point x="97" y="941" type="line"/>
			<point x="89" y="902"/>
			<point x="78" y="885"/>
			<point x="61" y="885" type="curve" smooth="yes"/>
			<point x="55" y="885"/>
			<point x="50" y="888"/>
			<point x="31" y="899" type="curve" smooth="yes"/>
			<point x="-24" y="931"/>
			<point x="-40" y="938"/>
			<point x="-62" y="938" type="curve" smooth="yes"/>
			<point x="-122" y="938"/>
			<point x="-169" y="893"/>
			<point x="-183" y="820" type="curve"/>
		</contour>
	</outline>
	<anchor name="_top.LC" x="0" y="544"/>
</glyph>
<glyph name="eight.dnom" format="2">
	<advance width="385"/>
	<outline>
		<contour>
			<point x="192" y="-9" type="curve" smooth="yes"/>
			<point x="295" y="-9"/>
			<point x="363" y="44"/>
			<point x="363" y="115" type="curve" smooth="yes"/>
			<point x="363" y="186"/>
			<point x="291" y="234"/>
			<point x="192" y="234" type="curve" smooth="yes"/>
			<point x="94" y="234"/>
			<point x="22" y="186"/>
			<point x="22" y="115" type="curve" smooth="yes"/>
			<point x="22" y="44"/>
			<point x="89" y="-9"/>
		</contour>
		<contour>
			<point x="192" y="201" type="curve" smooth="yes"/>
			<point x="280" y="201"/>
			<point x="345" y="244"/>
			<point x="345" y="306" type="curve" smooth="yes"/>
			<point x="345" y="368"/>
			<point x="284" y="417"/>
			<point x="192" y="417" type="curve" smooth="yes"/>
			<point x="100" y="417"/>
			<point x="39" y="368"/>
			<point x="39" y="306" type="curve" smooth="yes"/>
			<point x="39" y="244"/>
			<point x="104" y="201"/>
		</contour>
		<contour>
			<point x="192" y="83" type="curve" smooth="yes"/>
			<point x="162" y="83"/>
			<point x="142" y="101"/>
			<point x="142" y="127" type="curve" smooth="yes"/>
			<point x="142" y="154"/>
			<point x="162" y="172"/>
			<point x="192" y="172" type="curve" smooth="yes"/>
			<point x="223" y="172"/>
			<point x="243" y="154"/>
			<point x="243" y="128" type="curve" smooth="yes"/>
			<point x="243" y="101"/>
			<point x="223" y="83"/>
		</contour>
		<contour>
			<point x="192" y="249" type="curve" smooth="yes"/>
			<point x="169" y="249"/>
			<point x="155" y="265"/>
			<point x="155" y="288" type="curve" smooth="yes"/>
			<point x="155" y="311"/>
			<point x="169" y="327"/>
			<point x="192" y="327" type="curve" smooth="yes"/>
			<point x="214" y="327"/>
			<point x="229" y="312"/>
			<point x="229" y="289" type="curve" smooth="yes"/>
			<point x="229" y="265"/>
			<point x="214" y="249"/>
		</contour>
	</outline>
</glyph>
<glyph name="exclamdown.case" format="2">
	<advance width="288"/>
	<outline>
		<contour>
			<point x="108" y="465" type="line"/>
			<point x="98" y="409"/>
			<point x="56" y="90"/>
			<point x="56" y="68" type="curve" smooth="yes"/>
			<point x="56" y="8"/>
			<point x="98" y="-29"/>
			<point x="148" y="-29" type="curve"/>
			<point x="198" y="-29"/>
			<point x="240" y="8"/>
			<point x="240" y="68" type="curve" smooth="yes"/>
			<point x="240" y="90"/>
			<point x="199" y="409"/>
			<point x="189" y="465" type="curve"/>
		</contour>
		<contour>
			<point x="148" y="715" type="curve" smooth="yes"/>
			<point x="91" y="715"/>
			<point x="49" y="674"/>
			<point x="49" y="617" type="curve" smooth="yes"/>
			<point x="49" y="560"/>
			<point x="91" y="519"/>
			<point x="148" y="519" type="curve" smooth="yes"/>
			<point x="205" y="519"/>
			<point x="247" y="560"/>
			<point x="247" y="617" type="curve" smooth="yes"/>
			<point x="247" y="674"/>
			<point x="205" y="715"/>
		</contour>
	</outline>
</glyph>
<glyph name="five.dnom" format="2">
	<advance width="370"/>
	<outline>
		<contour>
			<point x="17" y="56" type="line"/>
			<point x="63" y="13"/>
			<point x="119" y="-9"/>
			<point x="184" y="-9" type="curve" smooth="yes"/>
			<point x="278" y="-9"/>
			<point x="350" y="51"/>
			<point x="350" y="140" type="curve" smooth="yes"/>
			<point x="350" y="222"/>
			<point x="293" y="282"/>
			<point x="210" y="282" type="curve" smooth="yes"/>
			<point x="147" y="282"/>
			<point x="107" y="235"/>
			<point x="102" y="173" type="curve"/>
			<point x="134" y="172" type="line"/>
			<point x="147" y="184"/>
			<point x="162" y="192"/>
			<point x="184" y="192" type="curve" smooth="yes"/>
			<point x="215" y="192"/>
			<point x="234" y="169"/>
			<point x="234" y="140" type="curve" smooth="yes"/>
			<point x="234" y="109"/>
			<point x="212" y="85"/>
			<point x="180" y="85" type="curve" smooth="yes"/>
			<point x="140" y="85"/>
			<point x="109" y="99"/>
			<point x="76" y="133" type="curve"/>
		</contour>
		<contour>
			<point x="330" y="317" type="line"/>
			<point x="330" y="408" type="line"/>
			<point x="63" y="408" type="line"/>
			<point x="33" y="172" type="line"/>
			<point x="134" y="172" type="line"/>
			<point x="162" y="386" type="line"/>
			<point x="95" y="317" type="line"/>
		</contour>
	</outline>
</glyph>
<glyph name="ghe.loclBGR" format="2">
	<advance width="527"/>
	<outline>
		<contour>
			<point x="263" y="-16" type="curve" smooth="yes"/>
			<point x="360" y="-16"/>
			<point x="451" y="18"/>
			<point x="505" y="74" type="curve"/>
			<point x="428" y="173" type="line"/>
			<point x="386" y="131"/>
			<point x="318" y="103"/>
			<point x="259" y="103" type="curve" smooth="yes"/>
			<point x="215" y="103"/>
			<point x="188" y="117"/>
			<point x="188" y="141" type="curve" smooth="yes"/>
			<point x="188" y="167"/>
			<point x="207" y="181"/>
			<point x="287" y="197" type="curve" smooth="yes"/>
			<point x="419" y="223"/>
			<point x="483" y="269"/>
			<point x="483" y="355" type="curve" smooth="yes"/>
			<point x="483" y="457"/>
			<point x="395" y="526"/>
			<point x="264" y="526" type="curve" smooth="yes"/>
			<point x="177" y="526"/>
			<point x="95" y="496"/>
			<point x="39" y="443" type="curve"/>
			<point x="114" y="343" type="line"/>
			<point x="155" y="383"/>
			<point x="212" y="408"/>
			<point x="264" y="408" type="curve" smooth="yes"/>
			<point x="303" y="408"/>
			<point x="327" y="394"/>
			<point x="327" y="371" type="curve" smooth="yes"/>
			<point x="327" y="346"/>
			<point x="310" y="335"/>
			<point x="220" y="316" type="curve" smooth="yes"/>
			<point x="94" y="290"/>
			<point x="34" y="244"/>
			<point x="34" y="156" type="curve" smooth="yes"/>
			<point x="34" y="52"/>
			<point x="125" y="-16"/>
		</contour>
	</outline>
</glyph>
<glyph name="hard.loclBGR" format="2">
	<advance width="608"/>
	<outline>
		<contour>
			<point x="371" y="-16" type="curve" smooth="yes"/>
			<point x="505" y="-16"/>
			<point x="593" y="67"/>
			<point x="593" y="193" type="curve" smooth="yes"/>
			<point x="593" y="302"/>
			<point x="512" y="384"/>
			<point x="404" y="384" type="curve" smooth="yes"/>
			<point x="334" y="384"/>
			<point x="278" y="348"/>
			<point x="257" y="291" type="curve"/>
			<point x="298" y="273" type="line"/>
			<point x="298" y="510" type="line"/>
			<point x="23" y="510" type="line"/>
			<point x="23" y="379" type="line"/>
			<point x="164" y="379" type="line"/>
			<point x="139" y="404" type="line"/>
			<point x="139" y="204" type="line" smooth="yes"/>
			<point x="139" y="63"/>
			<point x="222" y="-16"/>
		</contour>
		<contour>
			<point x="363" y="113" type="curve" smooth="yes"/>
			<point x="324" y="113"/>
			<point x="297" y="143"/>
			<point x="297" y="185" type="curve" smooth="yes"/>
			<point x="297" y="227"/>
			<point x="324" y="256"/>
			<point x="363" y="256" type="curve" smooth="yes"/>
			<point x="401" y="256"/>
			<point x="431" y="226"/>
			<point x="431" y="185" type="curve" smooth="yes"/>
			<point x="431" y="143"/>
			<point x="402" y="113"/>
		</contour>
	</outline>
</glyph>
<glyph name="hookabovecomb.cap" format="2">
	<outline>
		<contour>
			<point x="-5" y="765" type="line"/>
			<point x="74" y="796"/>
			<point x="122" y="848"/>
			<point x="122" y="907" type="curve" smooth="yes"/>
			<point x="122" y="966"/>
			<point x="75" y="1007"/>
			<point x="4" y="1007" type="curve" smooth="yes"/>
			<point x="-42" y="1007"/>
			<point x="-80" y="990"/>
			<point x="-113" y="956" type="curve"/>
			<point x="-66" y="894" type="line"/>
			<point x="-46" y="910"/>
			<point x="-31" y="916"/>
			<point x="-15" y="916" type="curve" smooth="yes"/>
			<point x="5" y="916"/>
			<point x="16" y="906"/>
			<point x="16" y="889" type="curve" smooth="yes"/>
			<point x="16" y="868"/>
			<point x="0" y="852"/>
			<point x="-40" y="831" type="curve"/>
		</contour>
	</outline>
	<anchor name="_top.UC" x="0" y="750"/>
</glyph>
<glyph name="nine.dnom" format="2">
	<advance width="379"/>
	<outline>
		<contour>
			<point x="190" y="417" type="curve"/>
			<point x="93" y="417"/>
			<point x="19" y="358"/>
			<point x="19" y="269" type="curve" smooth="yes"/>
			<point x="19" y="189"/>
			<point x="76" y="132"/>
			<point x="156" y="132" type="curve" smooth="yes"/>
			<point x="195" y="132"/>
			<point x="212" y="146"/>
			<point x="229" y="169" type="curve"/>
			<point x="222" y="170" type="line"/>
			<point x="196" y="126"/>
			<point x="147" y="77"/>
			<point x="56" y="0" type="curve"/>
			<point x="202" y="0" type="line"/>
			<point x="281" y="75"/>
			<point x="358" y="153"/>
			<point x="358" y="258" type="curve" smooth="yes"/>
			<point x="358" y="351"/>
			<point x="288" y="417"/>
		</contour>
		<contour>
			<point x="189" y="325" type="curve"/>
			<point x="221" y="325"/>
			<point x="245" y="302"/>
			<point x="245" y="272" type="curve" smooth="yes"/>
			<point x="245" y="241"/>
			<point x="221" y="218"/>
			<point x="189" y="218" type="curve" smooth="yes"/>
			<point x="155" y="218"/>
			<point x="133" y="241"/>
			<point x="133" y="272" type="curve" smooth="yes"/>
			<point x="133" y="302"/>
			<point x="155" y="325"/>
		</contour>
	</outline>
</glyph>
<glyph name="sha.loclBGR" format="2">
	<advance width="891"/>
	<outline>
		<contour>
			<point x="241" y="-16" type="curve" smooth="yes"/>
			<point x="344" y="-16"/>
			<point x="400" y="49"/>
			<point x="423" y="190" type="curve"/>
			<point x="367" y="208" type="line"/>
			<point x="359" y="156"/>
			<point x="325" y="120"/>
			<point x="281" y="120" type="curve" smooth="yes"/>
			<point x="242" y="120"/>
			<point x="221" y="151"/>
			<point x="221" y="206" type="curve" smooth="yes"/>
			<point x="221" y="510" type="line"/>
			<point x="58" y="510" type="line"/>
			<point x="58" y="189" type="line" smooth="yes"/>
			<point x="58" y="59"/>
			<point x="125" y="-16"/>
		</contour>
		<contour>
			<point x="531" y="-16" type="curve" smooth="yes"/>
			<point x="638" y="-16"/>
			<point x="701" y="61"/>
			<point x="701" y="190" type="curve"/>
			<point x="669" y="210" type="line"/>
			<point x="661" y="157"/>
			<point x="627" y="120"/>
			<point x="584" y="120" type="curve" smooth="yes"/>
			<point x="547" y="120"/>
			<point x="525" y="152"/>
			<point x="525" y="206" type="curve" smooth="yes"/>
			<point x="525" y="510" type="line"/>
			<point x="362" y="510" type="line"/>
			<point x="362" y="188" type="line" smooth="yes"/>
			<point x="362" y="59"/>
			<point x="425" y="-16"/>
		</contour>
		<contour>
			<point x="666" y="0" type="line"/>
			<point x="828" y="0" type="line"/>
			<point x="828" y="510" type="line"/>
			<point x="665" y="510" type="line"/>
			<point x="665" y="138" type="line"/>
			<point x="666" y="106" type="line"/>
		</contour>
	</outline>
</glyph>
<glyph name="shcha.loclBGR" format="2">
	<advance width="932"/>
	<outline>
		<contour>
			<point x="241" y="-16" type="curve" smooth="yes"/>
			<point x="344" y="-16"/>
			<point x="400" y="49"/>
			<point x="423" y="190" type="curve"/>
			<point x="367" y="208" type="line"/>
			<point x="359" y="156"/>
			<point x="325" y="120"/>
			<point x="281" y="120" type="curve" smooth="yes"/>
			<point x="242" y="120"/>
			<point x="221" y="151"/>
			<point x="221" y="206" type="curve" smooth="yes"/>
			<point x="221" y="510" type="line"/>
			<point x="58" y="510" type="line"/>
			<point x="58" y="189" type="line" smooth="yes"/>
			<point x="58" y="59"/>
			<point x="125" y="-16"/>
		</contour>
		<contour>
			<point x="531" y="-16" type="curve" smooth="yes"/>
			<point x="638" y="-16"/>
			<point x="701" y="61"/>
			<point x="701" y="190" type="curve"/>
			<point x="669" y="210" type="line"/>
			<point x="661" y="157"/>
			<point x="627" y="120"/>
			<point x="584" y="120" type="curve" smooth="yes"/>
			<point x="547" y="120"/>
			<point x="525" y="152"/>
			<point x="525" y="206" type="curve" smooth="yes"/>
			<point x="525" y="510" type="line"/>
			<point x="362" y="510" type="line"/>
			<point x="362" y="188" type="line" smooth="yes"/>
			<point x="362" y="59"/>
			<point x="425" y="-16"/>
		</contour>
		<contour>
			<point x="758" y="-144" type="line"/>
			<point x="911" y="-144" type="line"/>
			<point x="911" y="133" type="line"/>
			<point x="871" y="133" type="line" smooth="yes"/>
			<point x="839" y="133"/>
			<point x="828" y="147"/>
			<point x="828" y="186" type="curve" smooth="yes"/>
			<point x="828" y="510" type="line"/>
			<point x="665" y="510" type="line"/>
			<point x="665" y="146" type="line"/>
			<point x="667" y="120" type="line" smooth="yes"/>
			<point x="673" y="47"/>
			<point x="724" y="0"/>
			<point x="790" y="0" type="curve"/>
			<point x="758" y="51" type="line"/>
		</contour>
	</outline>
</glyph>
<glyph name="six.dnom" format="2">
	<advance width="379"/>
	<outline>
		<contour>
			<point x="190" y="-9" type="curve" smooth="yes"/>
			<point x="287" y="-9"/>
			<point x="360" y="50"/>
			<point x="360" y="139" type="curve" smooth="yes"/>
			<point x="360" y="219"/>
			<point x="303" y="276"/>
			<point x="223" y="276" type="curve" smooth="yes"/>
			<point x="185" y="276"/>
			<point x="167" y="262"/>
			<point x="151" y="239" type="curve"/>
			<point x="158" y="238" type="line"/>
			<point x="183" y="282"/>
			<point x="232" y="331"/>
			<point x="323" y="408" type="curve"/>
			<point x="177" y="408" type="line"/>
			<point x="98" y="333"/>
			<point x="21" y="255"/>
			<point x="21" y="150" type="curve" smooth="yes"/>
			<point x="21" y="57"/>
			<point x="91" y="-9"/>
		</contour>
		<contour>
			<point x="191" y="83" type="curve"/>
			<point x="158" y="83"/>
			<point x="135" y="106"/>
			<point x="135" y="136" type="curve" smooth="yes"/>
			<point x="135" y="167"/>
			<point x="158" y="190"/>
			<point x="191" y="190" type="curve" smooth="yes"/>
			<point x="224" y="190"/>
			<point x="247" y="167"/>
			<point x="247" y="136" type="curve" smooth="yes"/>
			<point x="247" y="106"/>
			<point x="224" y="83"/>
		</contour>
	</outline>
</glyph>
<glyph name="soft.loclBGR" format="2">
	<advance width="527"/>
	<outline>
		<contour>
			<point x="290" y="-16" type="curve" smooth="yes"/>
			<point x="424" y="-16"/>
			<point x="512" y="67"/>
			<point x="512" y="193" type="curve" smooth="yes"/>
			<point x="512" y="302"/>
			<point x="431" y="384"/>
			<point x="323" y="384" type="curve" smooth="yes"/>
			<point x="253" y="384"/>
			<point x="197" y="348"/>
			<point x="176" y="291" type="curve"/>
			<point x="217" y="273" type="line"/>
			<point x="217" y="510" type="line"/>
			<point x="58" y="510" type="line"/>
			<point x="58" y="204" type="line" smooth="yes"/>
			<point x="58" y="63"/>
			<point x="141" y="-16"/>
		</contour>
		<contour>
			<point x="282" y="113" type="curve" smooth="yes"/>
			<point x="243" y="113"/>
			<point x="216" y="143"/>
			<point x="216" y="185" type="curve" smooth="yes"/>
			<point x="216" y="227"/>
			<point x="243" y="256"/>
			<point x="282" y="256" type="curve" smooth="yes"/>
			<point x="320" y="256"/>
			<point x="350" y="226"/>
			<point x="350" y="185" type="curve" smooth="yes"/>
			<point x="350" y="143"/>
			<point x="321" y="113"/>
		</contour>
	</outline>
</glyph>
<glyph name="three.dnom" format="2">
	<advance width="377"/>
	<outline>
		<contour>
			<point x="9" y="59" type="line"/>
			<point x="51" y="15"/>
			<point x="110" y="-9"/>
			<point x="178" y="-9" type="curve" smooth="yes"/>
			<point x="285" y="-9"/>
			<point x="349" y="48"/>
			<point x="349" y="118" type="curve" smooth="yes"/>
			<point x="349" y="182"/>
			<point x="300" y="226"/>
			<point x="213" y="226" type="curve"/>
			<point x="201" y="205" type="line"/>
			<point x="281" y="205"/>
			<point x="337" y="245"/>
			<point x="337" y="303" type="curve" smooth="yes"/>
			<point x="337" y="364"/>
			<point x="275" y="417"/>
			<point x="183" y="417" type="curve" smooth="yes"/>
			<point x="121" y="417"/>
			<point x="65" y="392"/>
			<point x="20" y="348" type="curve"/>
			<point x="80" y="277" type="line"/>
			<point x="110" y="311"/>
			<point x="141" y="325"/>
			<point x="168" y="325" type="curve" smooth="yes"/>
			<point x="202" y="325"/>
			<point x="220" y="309"/>
			<point x="220" y="289" type="curve" smooth="yes"/>
			<point x="220" y="268"/>
			<point x="202" y="254"/>
			<point x="165" y="254" type="curve" smooth="yes"/>
			<point x="121" y="254" type="line"/>
			<point x="121" y="165" type="line"/>
			<point x="165" y="165" type="line" smooth="yes"/>
			<point x="208" y="165"/>
			<point x="232" y="149"/>
			<point x="232" y="125" type="curve" smooth="yes"/>
			<point x="232" y="100"/>
			<point x="207" y="83"/>
			<point x="170" y="83" type="curve" smooth="yes"/>
			<point x="136" y="83"/>
			<point x="104" y="96"/>
			<point x="67" y="130" type="curve"/>
		</contour>
	</outline>
</glyph>
<glyph name="tildecomb.cap" format="2">
	<outline>
		<contour>
			<point x="110" y="941" type="line"/>
			<point x="103" y="889"/>
			<point x="91" y="875"/>
			<point x="76" y="875" type="curve" smooth="yes"/>
			<point x="65" y="875"/>
			<point x="52" y="884"/>
			<point x="37" y="895" type="curve" smooth="yes"/>
			<point x="12" y="913"/>
			<point x="-27" y="940"/>
			<point x="-74" y="940" type="curve" smooth="yes"/>
			<point x="-141" y="940"/>
			<point x="-199" y="899"/>
			<point x="-212" y="806" type="curve"/>
			<point x="-111" y="770" type="line"/>
			<point x="-102" y="821"/>
			<point x="-89" y="835"/>
			<point x="-76" y="835" type="curve" smooth="yes"/>
			<point x="-65" y="835"/>
			<point x="-52" y="826"/>
			<point x="-37" y="815" type="curve" smooth="yes"/>
			<point x="-12" y="797"/>
			<point x="27" y="770"/>
			<point x="74" y="770" type="curve" smooth="yes"/>
			<point x="146" y="770"/>
			<point x="199" y="811"/>
			<point x="212" y="904" type="curve"/>
		</contour>
	</outline>
	<anchor name="_top.UC" x="0" y="750"/>
</glyph>
<glyph name="tse.loclBGR" format="2">
	<advance width="645"/>
	<outline>
		<contour>
			<point x="471" y="-144" type="line"/>
			<point x="624" y="-144" type="line"/>
			<point x="624" y="133" type="line"/>
			<point x="584" y="133" type="line" smooth="yes"/>
			<point x="552" y="133"/>
			<point x="541" y="147"/>
			<point x="541" y="186" type="curve" smooth="yes"/>
			<point x="541" y="510" type="line"/>
			<point x="378" y="510" type="line"/>
			<point x="378" y="146" type="line"/>
			<point x="380" y="120" type="line" smooth="yes"/>
			<point x="386" y="47"/>
			<point x="437" y="0"/>
			<point x="503" y="0" type="curve"/>
			<point x="471" y="51" type="line"/>
		</contour>
		<contour>
			<point x="383" y="208" type="line"/>
			<point x="374" y="157"/>
			<point x="335" y="120"/>
			<point x="290" y="120" type="curve" smooth="yes"/>
			<point x="248" y="120"/>
			<point x="221" y="149"/>
			<point x="221" y="206" type="curve" smooth="yes"/>
			<point x="221" y="510" type="line"/>
			<point x="58" y="510" type="line"/>
			<point x="58" y="189" type="line" smooth="yes"/>
			<point x="58" y="56"/>
			<point x="127" y="-16"/>
			<point x="237" y="-16" type="curve" smooth="yes"/>
			<point x="347" y="-16"/>
			<point x="415" y="66"/>
			<point x="415" y="192" type="curve"/>
		</contour>
	</outline>
</glyph>
<glyph name="two.dnom" format="2">
	<advance width="357"/>
	<outline>
		<contour>
			<point x="333" y="0" type="line"/>
			<point x="333" y="87" type="line"/>
			<point x="170" y="87" type="line"/>
			<point x="174" y="76" type="line"/>
			<point x="231" y="123" type="line" smooth="yes"/>
			<point x="306" y="185"/>
			<point x="332" y="231"/>
			<point x="332" y="284" type="curve" smooth="yes"/>
			<point x="332" y="360"/>
			<point x="265" y="417"/>
			<point x="172" y="417" type="curve" smooth="yes"/>
			<point x="105" y="417"/>
			<point x="53" y="388"/>
			<point x="12" y="338" type="curve"/>
			<point x="81" y="267" type="line"/>
			<point x="111" y="311"/>
			<point x="141" y="324"/>
			<point x="168" y="324" type="curve" smooth="yes"/>
			<point x="191" y="324"/>
			<point x="212" y="306"/>
			<point x="212" y="278" type="curve" smooth="yes"/>
			<point x="212" y="259"/>
			<point x="207" y="246"/>
			<point x="181" y="222" type="curve" smooth="yes"/>
			<point x="26" y="84" type="line"/>
			<point x="26" y="0" type="line"/>
		</contour>
	</outline>
</glyph>
<glyph name="ve.loclBGR" format="2">
	<advance width="598"/>
	<outline>
		<contour>
			<point x="312" y="-16" type="curve" smooth="yes"/>
			<point x="464" y="-16"/>
			<point x="563" y="72"/>
			<point x="563" y="208" type="curve" smooth="yes"/>
			<point x="563" y="293"/>
			<point x="504" y="362"/>
			<point x="418" y="377" type="curve"/>
			<point x="418" y="370" type="line"/>
			<point x="488" y="387"/>
			<point x="538" y="456"/>
			<point x="538" y="534" type="curve" smooth="yes"/>
			<point x="538" y="653"/>
			<point x="446" y="731"/>
			<point x="306" y="731" type="curve" smooth="yes"/>
			<point x="160" y="731"/>
			<point x="55" y="629"/>
			<point x="55" y="487" type="curve" smooth="yes"/>
			<point x="55" y="224" type="line" smooth="yes"/>
			<point x="55" y="72"/>
			<point x="149" y="-16"/>
		</contour>
		<contour>
			<point x="312" y="120" type="curve" smooth="yes"/>
			<point x="247" y="120"/>
			<point x="211" y="165"/>
			<point x="211" y="244" type="curve" smooth="yes"/>
			<point x="211" y="485" type="line" smooth="yes"/>
			<point x="211" y="551"/>
			<point x="249" y="595"/>
			<point x="307" y="595" type="curve" smooth="yes"/>
			<point x="356" y="595"/>
			<point x="386" y="566"/>
			<point x="386" y="518" type="curve" smooth="yes"/>
			<point x="386" y="467"/>
			<point x="346" y="430"/>
			<point x="291" y="430" type="curve" smooth="yes"/>
			<point x="138" y="430" type="line"/>
			<point x="138" y="301" type="line"/>
			<point x="304" y="301" type="line" smooth="yes"/>
			<point x="365" y="301"/>
			<point x="403" y="267"/>
			<point x="403" y="212" type="curve" smooth="yes"/>
			<point x="403" y="157"/>
			<point x="368" y="120"/>
		</contour>
	</outline>
</glyph>
<glyph name="ze.loclBGR" format="2">
	<advance width="540"/>
	<outline>
		<contour>
			<point x="233" y="-212" type="curve" smooth="yes"/>
			<point x="394" y="-212"/>
			<point x="508" y="-122"/>
			<point x="508" y="4" type="curve" smooth="yes"/>
			<point x="508" y="96"/>
			<point x="444" y="170"/>
			<point x="357" y="177" type="curve"/>
			<point x="356" y="167" type="line"/>
			<point x="441" y="177"/>
			<point x="498" y="241"/>
			<point x="498" y="329" type="curve" smooth="yes"/>
			<point x="498" y="443"/>
			<point x="395" y="526"/>
			<point x="253" y="526" type="curve" smooth="yes"/>
			<point x="157" y="526"/>
			<point x="81" y="495"/>
			<point x="23" y="432" type="curve"/>
			<point x="105" y="326" type="line"/>
			<point x="140" y="369"/>
			<point x="182" y="389"/>
			<point x="235" y="389" type="curve" smooth="yes"/>
			<point x="300" y="389"/>
			<point x="343" y="358"/>
			<point x="343" y="311" type="curve" smooth="yes"/>
			<point x="343" y="264"/>
			<point x="309" y="233"/>
			<point x="255" y="233" type="curve" smooth="yes"/>
			<point x="149" y="233" type="line"/>
			<point x="149" y="102" type="line"/>
			<point x="257" y="102" type="line" smooth="yes"/>
			<point x="317" y="102"/>
			<point x="351" y="70"/>
			<point x="351" y="12" type="curve" smooth="yes"/>
			<point x="351" y="-46"/>
			<point x="310" y="-76"/>
			<point x="231" y="-76" type="curve" smooth="yes"/>
			<point x="177" y="-76"/>
			<point x="129" y="-51"/>
			<point x="92" y="-3" type="curve"/>
			<point x="7" y="-107" type="line"/>
			<point x="68" y="-176"/>
			<point x="144" y="-212"/>
		</contour>
	</outline>
</glyph>
<glyph name="zero.dnom" format="2">
	<advance width="390"/>
	<outline>
		<contour>
			<point x="195" y="-9" type="curve" smooth="yes"/>
			<point x="305" y="-9"/>
			<point x="372" y="68"/>
			<point x="372" y="204" type="curve" smooth="yes"/>
			<point x="372" y="340"/>
			<point x="305" y="417"/>
			<point x="195" y="417" type="curve" smooth="yes"/>
			<point x="84" y="417"/>
			<point x="18" y="340"/>
			<point x="18" y="204" type="curve" smooth="yes"/>
			<point x="18" y="68"/>
			<point x="84" y="-9"/>
		</contour>
		<contour>
			<point x="195" y="83" type="curve" smooth="yes"/>
			<point x="160" y="83"/>
			<point x="138" y="123"/>
			<point x="138" y="204" type="curve" smooth="yes"/>
			<point x="138" y="284"/>
			<point x="160" y="325"/>
			<point x="195" y="325" type="curve" smooth="yes"/>
			<point x="230" y="325"/>
			<point x="252" y="284"/>
			<point x="252" y="204" type="curve" smooth="yes"/>
			<point x="252" y="123"/>
			<point x="230" y="83"/>
		</contour>
	</outline>
</glyph>
<glyph name="zero.percent" format="2">
	<advance width="376"/>
	<outline>
		<contour>
			<point x="188" y="-14" type="curve" smooth="yes"/>
			<point x="285" y="-14"/>
			<point x="361" y="62"/>
			<point x="361" y="161" type="curve" smooth="yes"/>
			<point x="361" y="260"/>
			<point x="285" y="336"/>
			<point x="188" y="336" type="curve" smooth="yes"/>
			<point x="92" y="336"/>
			<point x="16" y="260"/>
			<point x="16" y="161" type="curve" smooth="yes"/>
			<point x="16" y="62"/>
			<point x="92" y="-14"/>
		</contour>
		<contour>
			<point x="188" y="101" type="curve" smooth="yes"/>
			<point x="160" y="101"/>
			<point x="136" y="128"/>
			<point x="136" y="161" type="curve" smooth="yes"/>
			<point x="136" y="194"/>
			<point x="160" y="221"/>
			<point x="188" y="221" type="curve" smooth="yes"/>
			<point x="217" y="221"/>
			<point x="241" y="194"/>
			<point x="241" y="161" type="curve" smooth="yes"/>
			<point x="241" y="128"/>
			<point x="217" y="101"/>
		</contour>
	</outline>
</glyph>
